<svg width="593" height="499" viewBox="0 0 593 499" fill="none" xmlns="http://www.w3.org/2000/svg">
<g opacity="0.3">
<path opacity="0.3" d="M592.881 474.147V466.722L590.535 465.578C589.867 469.075 585.118 471.396 581.131 471.876L554.101 485.616L542.313 489.312L504.639 472.423L505.517 471.992C502.293 470.683 500.557 467.7 498.822 464.965L496.285 466.274L494.778 466.656V474.263C494.877 475.128 495.236 475.955 495.819 476.661C496.401 477.368 497.187 477.93 498.097 478.29L535.885 497.218C538.37 498.305 541.114 498.871 543.896 498.871C546.679 498.871 549.423 498.305 551.908 497.218L589.638 478.29C590.532 477.935 591.305 477.385 591.883 476.694C592.461 476.003 592.825 475.194 592.938 474.346C592.948 474.28 592.948 474.213 592.938 474.147H592.881Z" fill="url(#paint0_linear_488_10853)"/>
<path opacity="0.3" d="M581.13 471.876L554.101 485.616L543.838 488.831V498.875C546.628 498.925 549.386 498.355 551.85 497.218L589.581 478.291C590.474 477.935 591.247 477.385 591.825 476.694C592.403 476.003 592.767 475.194 592.881 474.346C592.89 474.28 592.89 474.213 592.881 474.147V474.147V466.722L590.725 465.678H590.496C589.771 469.125 585.079 471.329 581.13 471.876Z" fill="#0F054C"/>
<path opacity="0.3" d="M535.885 489.66L498.154 470.733C493.729 468.529 493.729 464.915 498.154 462.695L535.885 443.767C538.37 442.68 541.114 442.114 543.897 442.114C546.679 442.114 549.423 442.68 551.908 443.767L589.639 462.695C594.045 464.915 594.045 468.529 589.639 470.733L551.908 489.66C549.426 490.755 546.681 491.325 543.897 491.325C541.113 491.325 538.368 490.755 535.885 489.66Z" fill="url(#paint1_linear_488_10853)"/>
<g opacity="0.3">
<path opacity="0.3" d="M535.885 489.66L498.154 470.733C493.729 468.529 493.729 464.915 498.154 462.695L535.885 443.767C538.37 442.68 541.114 442.114 543.897 442.114C546.679 442.114 549.423 442.68 551.908 443.767L589.639 462.695C594.045 464.915 594.045 468.529 589.639 470.733L551.908 489.66C549.426 490.755 546.681 491.325 543.897 491.325C541.113 491.325 538.368 490.755 535.885 489.66Z" fill="#0F054C"/>
</g>
</g>
<path d="M543.838 465.744C541.361 465.783 538.913 465.276 536.723 464.269L498.993 445.342C498.102 445.07 497.33 444.564 496.784 443.895C496.238 443.225 495.944 442.425 495.944 441.604C495.944 440.784 496.238 439.984 496.784 439.314C497.33 438.645 498.102 438.139 498.993 437.867L536.723 418.94C538.928 417.975 541.361 417.473 543.829 417.473C546.297 417.473 548.73 417.975 550.934 418.94L588.684 437.867C589.575 438.139 590.347 438.645 590.893 439.314C591.439 439.984 591.733 440.784 591.733 441.604C591.733 442.425 591.439 443.225 590.893 443.895C590.347 444.564 589.575 445.07 588.684 445.342L550.954 464.269C548.764 465.276 546.316 465.783 543.838 465.744ZM543.838 418.045C541.476 418.004 539.14 418.482 537.048 419.437L499.317 438.364C498.534 438.59 497.852 439.025 497.369 439.607C496.886 440.188 496.626 440.887 496.626 441.604C496.626 442.322 496.886 443.021 497.369 443.602C497.852 444.184 498.534 444.619 499.317 444.845L537.048 463.772C539.15 464.695 541.473 465.176 543.829 465.176C546.185 465.176 548.508 464.695 550.61 463.772L588.341 444.811C589.124 444.585 589.806 444.151 590.289 443.569C590.772 442.988 591.032 442.289 591.032 441.571C591.032 440.854 590.772 440.155 590.289 439.573C589.806 438.992 589.124 438.557 588.341 438.331L550.61 419.404C548.521 418.463 546.191 417.995 543.838 418.045V418.045Z" fill="#42E8E0"/>
<path opacity="0.4" d="M592.881 434.337V423.116L590.535 421.973C589.867 425.486 585.118 427.79 581.131 428.271L554.101 442.01L542.313 445.706L504.639 428.818L505.517 428.387C502.293 427.077 500.557 424.094 498.822 421.359L496.285 422.669L494.778 423.05V434.453C494.877 435.318 495.236 436.144 495.819 436.851C496.401 437.558 497.187 438.119 498.097 438.48L535.885 457.407C538.367 458.502 541.112 459.073 543.896 459.073C546.68 459.073 549.425 458.502 551.908 457.407L589.638 438.48C590.532 438.124 591.305 437.574 591.883 436.884C592.461 436.193 592.825 435.384 592.938 434.536C592.948 434.47 592.948 434.403 592.938 434.337H592.881Z" fill="#42E8E0"/>
<path d="M592.881 424.359V416.934L590.535 415.791C589.867 419.304 585.118 421.608 581.131 422.089L554.101 435.828L542.313 439.524L504.639 422.636L505.517 422.205C502.293 420.895 500.557 417.912 498.822 415.177L496.285 416.503L494.778 416.868V424.475C494.877 425.34 495.236 426.167 495.819 426.874C496.401 427.58 497.187 428.142 498.097 428.503L535.885 447.43C538.367 448.525 541.112 449.095 543.896 449.095C546.68 449.095 549.425 448.525 551.908 447.43L589.638 428.503C590.532 428.147 591.305 427.597 591.883 426.906C592.461 426.215 592.825 425.407 592.938 424.558C592.948 424.492 592.948 424.425 592.938 424.359H592.881Z" fill="url(#paint2_linear_488_10853)"/>
<path opacity="0.3" d="M581.13 422.088L554.101 435.828L543.838 439.043V449.087C546.628 449.137 549.386 448.566 551.85 447.43L589.581 428.502C590.474 428.147 591.248 427.597 591.826 426.906C592.404 426.215 592.767 425.406 592.881 424.558C592.89 424.492 592.89 424.425 592.881 424.359V424.359V416.934L590.725 415.89H590.496C589.771 419.337 585.079 421.608 581.13 422.088Z" fill="#0F054C"/>
<path d="M535.885 439.839L498.155 420.912C493.729 418.691 493.729 415.078 498.155 412.873L535.885 393.996C538.368 392.901 541.113 392.33 543.897 392.33C546.681 392.33 549.426 392.901 551.908 393.996L589.639 412.923C594.045 415.127 594.045 418.74 589.639 420.961L551.851 439.839C549.373 440.918 546.64 441.48 543.868 441.48C541.097 441.48 538.363 440.918 535.885 439.839V439.839Z" fill="url(#paint3_linear_488_10853)"/>
<path d="M589.58 420.962L551.85 439.839C549.364 440.927 546.62 441.493 543.838 441.493C541.055 441.493 538.312 440.927 535.826 439.839L498.096 420.912C497.272 420.575 496.549 420.078 495.98 419.461C495.411 418.843 495.013 418.121 494.815 417.349C494.548 419.006 495.654 420.664 498.096 421.824L535.884 440.801C538.366 441.895 541.111 442.466 543.895 442.466C546.679 442.466 549.424 441.895 551.907 440.801L589.637 421.873C590.645 421.51 591.499 420.885 592.083 420.084C592.666 419.283 592.952 418.345 592.899 417.398C592.696 418.173 592.291 418.897 591.716 419.515C591.14 420.132 590.41 420.627 589.58 420.962V420.962Z" fill="white"/>
<path d="M524.891 416.049L439.067 371.445L411.781 385.116H411.464L358.32 357.913L358.637 357.222L411.781 384.288L439.067 370.617L439.702 370.893L525.208 415.358L524.891 416.049Z" fill="url(#paint4_linear_488_10853)"/>
<g opacity="0.3">
<path opacity="0.3" d="M98.1694 473.344V465.919L95.8029 464.775C95.1349 468.289 90.383 470.593 86.4135 471.073L59.352 484.813L47.5579 488.509L9.86655 471.62L10.7445 471.189C7.51923 469.88 5.78255 466.897 4.04588 464.162L1.50771 465.488L3.43323e-05 465.852V473.46C0.0999317 474.325 0.459078 475.152 1.04172 475.858C1.62437 476.565 2.41014 477.127 3.32067 477.487L41.0693 496.414C43.5531 497.509 46.2993 498.08 49.0847 498.08C51.8701 498.08 54.6162 497.509 57.1 496.414L94.8487 477.487C95.7463 477.134 96.5237 476.585 97.1055 475.894C97.6872 475.203 98.0537 474.393 98.1694 473.543C98.1694 473.543 98.1694 473.41 98.1694 473.344V473.344Z" fill="url(#paint5_linear_488_10853)"/>
<path opacity="0.3" d="M86.4129 471.106L59.3515 484.846L49.0842 488.061V498.105C51.875 498.154 54.6341 497.584 57.0995 496.447L94.8481 477.52C95.7458 477.166 96.5232 476.617 97.105 475.926C97.6867 475.235 98.0532 474.425 98.1688 473.575C98.1688 473.575 98.1688 473.443 98.1688 473.376V465.951L95.9932 464.907H95.7642C95.039 468.321 90.3443 470.592 86.4129 471.106Z" fill="#0F054C"/>
<path opacity="0.3" d="M41.0693 488.873L3.32066 469.946C-1.10689 467.725 -1.10689 464.112 3.32066 461.908L41.0693 442.931C43.5531 441.836 46.2993 441.265 49.0847 441.265C51.8701 441.265 54.6162 441.836 57.1 442.931L94.8487 461.858C99.2571 464.062 99.2571 467.675 94.8487 469.896L57.1 488.873C54.6136 489.96 51.8685 490.527 49.0847 490.527C46.3009 490.527 43.5557 489.96 41.0693 488.873V488.873Z" fill="url(#paint6_linear_488_10853)"/>
<g opacity="0.3">
<path opacity="0.3" d="M41.0697 488.873L3.32107 469.946C-1.10647 467.725 -1.10647 464.112 3.32107 461.908L41.0697 442.931C43.5535 441.836 46.2997 441.265 49.0851 441.265C51.8705 441.265 54.6166 441.836 57.1004 442.931L94.8491 461.858C99.2575 464.062 99.2575 467.675 94.8491 469.896L57.1004 488.873C54.614 489.96 51.8689 490.527 49.0851 490.527C46.3013 490.527 43.5562 489.96 41.0697 488.873V488.873Z" fill="#0F054C"/>
</g>
</g>
<path d="M49.0847 461.328C46.6054 461.375 44.1539 460.867 41.9662 459.853L4.2176 440.925C3.33267 440.65 2.56731 440.144 2.02619 439.477C1.48507 438.809 1.19463 438.013 1.19463 437.196C1.19463 436.38 1.48507 435.584 2.02619 434.916C2.56731 434.249 3.33267 433.743 4.2176 433.467L41.9662 414.54C44.172 413.568 46.6109 413.061 49.0847 413.061C51.5584 413.061 53.9973 413.568 56.203 414.54L93.9517 433.467C94.8366 433.743 95.602 434.249 96.1431 434.916C96.6843 435.584 96.9747 436.38 96.9747 437.196C96.9747 438.013 96.6843 438.809 96.1431 439.477C95.602 440.144 94.8366 440.65 93.9517 440.925L56.203 459.853C54.0153 460.867 51.5639 461.375 49.0847 461.328ZM42.2907 459.356C44.3942 460.279 46.7181 460.76 49.0751 460.76C51.4321 460.76 53.7561 460.279 55.8595 459.356L93.6082 440.428C94.4514 440.261 95.2044 439.851 95.7438 439.263C96.2831 438.676 96.5769 437.947 96.5769 437.196C96.5769 436.445 96.2831 435.716 95.7438 435.129C95.2044 434.542 94.4514 434.131 93.6082 433.964L55.8595 415.037C53.7587 414.106 51.4337 413.621 49.0751 413.621C46.7165 413.621 44.3915 414.106 42.2907 415.037L4.54206 433.964C3.69879 434.131 2.9458 434.542 2.40644 435.129C1.86708 435.716 1.57331 436.445 1.57331 437.196C1.57331 437.947 1.86708 438.676 2.40644 439.263C2.9458 439.851 3.69879 440.261 4.54206 440.428L42.2907 459.356Z" fill="#42E8E0"/>
<path opacity="0.4" d="M98.1693 429.937V418.7L95.8028 417.556C95.1349 421.07 90.3829 423.374 86.4134 423.854L59.352 437.594L47.5579 441.273L9.86652 424.385L10.7444 423.954C7.5192 422.644 5.78251 419.661 4.04585 416.927L1.50767 418.252L0 418.617V430.036C0.0916595 430.901 0.447836 431.729 1.03167 432.434C1.61551 433.14 2.40576 433.696 3.32064 434.047L41.0693 452.974C43.5531 454.069 46.2992 454.64 49.0847 454.64C51.8701 454.64 54.6162 454.069 57.1 452.974L94.8486 434.047C95.7463 433.694 96.5237 433.145 97.1054 432.454C97.6872 431.763 98.0536 430.953 98.1693 430.103C98.1693 430.103 98.1693 429.97 98.1693 429.904V429.937Z" fill="#42E8E0"/>
<path d="M98.1693 419.943V412.518L95.8028 411.374C95.1349 414.888 90.3829 417.192 86.4134 417.672L59.352 431.412L47.5579 435.108L9.86652 418.219L10.7444 417.788C7.5192 416.479 5.78251 413.496 4.04585 410.778L1.50767 412.087L0 412.452V420.076C0.103083 420.938 0.463709 421.761 1.04617 422.465C1.62864 423.168 2.4127 423.727 3.32064 424.087L41.0693 443.014C43.5531 444.109 46.2992 444.679 49.0847 444.679C51.8701 444.679 54.6162 444.109 57.1 443.014L94.8486 424.087C95.7463 423.733 96.5237 423.184 97.1054 422.493C97.6872 421.802 98.0536 420.992 98.1693 420.142C98.1693 420.142 98.1693 420.009 98.1693 419.943V419.943Z" fill="url(#paint7_linear_488_10853)"/>
<path d="M41.0693 435.473L3.32066 416.545C-1.10689 414.324 -1.10689 410.711 3.32066 408.507L41.0693 389.58C43.5531 388.485 46.2993 387.914 49.0847 387.914C51.8701 387.914 54.6162 388.485 57.1 389.58L94.8487 408.507C99.2571 410.728 99.2571 414.324 94.8487 416.545L57.1 435.473C54.6162 436.567 51.8701 437.138 49.0847 437.138C46.2993 437.138 43.5531 436.567 41.0693 435.473Z" fill="url(#paint8_linear_488_10853)"/>
<path d="M49.085 432.025C46.8458 432.069 44.6312 431.612 42.6536 430.699L13.1685 415.915C12.3622 415.667 11.6644 415.207 11.1709 414.6C10.6774 413.994 10.4125 413.269 10.4125 412.526C10.4125 411.783 10.6774 411.058 11.1709 410.451C11.6644 409.844 12.3622 409.385 13.1685 409.136L42.6536 394.353C44.6454 393.471 46.8493 393.011 49.085 393.011C51.3207 393.011 53.5246 393.471 55.5164 394.353L85.0016 409.136C85.8078 409.385 86.5056 409.844 86.9991 410.451C87.4926 411.058 87.7576 411.783 87.7576 412.526C87.7576 413.269 87.4926 413.994 86.9991 414.6C86.5056 415.207 85.8078 415.667 85.0016 415.915L55.5164 430.699C53.5388 431.612 51.3242 432.069 49.085 432.025V432.025ZM42.978 430.202C44.8671 431.036 46.9563 431.471 49.0755 431.471C51.1946 431.471 53.2838 431.036 55.1729 430.202L84.6771 415.418C85.385 415.224 86.0033 414.839 86.4421 414.319C86.8809 413.799 87.1175 413.171 87.1175 412.526C87.1175 411.881 86.8809 411.253 86.4421 410.733C86.0033 410.213 85.385 409.828 84.6771 409.634L55.1729 394.866C53.2838 394.032 51.1946 393.598 49.0755 393.598C46.9563 393.598 44.8671 394.032 42.978 394.866L13.4929 409.65C12.8302 409.9 12.2563 410.3 11.8303 410.806C11.4043 411.313 11.1416 411.91 11.0692 412.534C11.1441 413.16 11.4076 413.757 11.8331 414.267C12.2586 414.776 12.8311 415.179 13.4929 415.435L42.978 430.202Z" fill="#5351AF"/>
<path d="M94.8482 416.546L57.0996 435.473C54.6158 436.568 51.8696 437.138 49.0842 437.138C46.2988 437.138 43.5526 436.568 41.0688 435.473L3.3202 416.546C2.49648 416.208 1.77249 415.712 1.20357 415.094C0.634647 414.477 0.235859 413.754 0.0377091 412.982C-0.00592794 413.932 0.28489 414.871 0.871363 415.673C1.45784 416.476 2.31209 417.104 3.3202 417.474L41.0688 436.401C43.5553 437.488 46.3004 438.054 49.0842 438.054C51.868 438.054 54.6131 437.488 57.0996 436.401L94.8482 417.474C95.856 417.105 96.7093 416.477 97.2929 415.673C97.8765 414.87 98.1623 413.931 98.1116 412.982C97.9168 413.753 97.5215 414.475 96.9558 415.093C96.3901 415.71 95.6692 416.207 94.8482 416.546V416.546Z" fill="white"/>
<path d="M53.7081 429.214L139.243 386.472L166.617 399.297L166.934 399.296L219.902 373.223L219.58 372.57L166.611 398.512L139.238 385.686L138.605 385.951L53.3864 428.56L53.7081 429.214Z" fill="url(#paint9_linear_488_10853)"/>
<g opacity="0.3">
<path opacity="0.3" d="M591.869 172.981V165.556L589.505 164.412C588.838 167.909 584.09 170.229 580.124 170.71L553.089 184.433L541.306 188.146L503.651 171.257L504.528 170.809C501.306 169.517 499.571 166.517 497.836 163.799L495.3 165.108L493.794 165.473V173.097C493.884 173.962 494.239 174.791 494.822 175.496C495.406 176.202 496.196 176.758 497.112 177.107L534.824 196.035C537.305 197.129 540.049 197.7 542.832 197.7C545.614 197.7 548.358 197.129 550.839 196.035L588.552 177.107C589.448 176.754 590.225 176.205 590.806 175.514C591.387 174.823 591.753 174.013 591.869 173.163V172.981V172.981Z" fill="url(#paint10_linear_488_10853)"/>
<path opacity="0.3" d="M580.124 170.71L553.088 184.433L542.831 187.665V197.709C545.619 197.759 548.375 197.188 550.839 196.051L588.551 177.124C589.448 176.77 590.224 176.221 590.805 175.53C591.387 174.839 591.753 174.03 591.868 173.179V172.997V165.572L589.714 164.528H589.485C588.722 167.959 584.051 170.229 580.124 170.71Z" fill="#0F054C"/>
<path opacity="0.3" d="M534.824 188.493L497.207 169.566C492.783 167.345 492.783 163.749 497.207 161.528L534.824 142.534C537.305 141.44 540.049 140.869 542.831 140.869C545.614 140.869 548.358 141.44 550.839 142.534L588.551 161.462C592.975 163.682 592.975 167.279 588.551 169.5L550.839 188.427C548.364 189.532 545.623 190.114 542.84 190.126C540.058 190.137 537.311 189.578 534.824 188.493V188.493Z" fill="url(#paint11_linear_488_10853)"/>
<g opacity="0.3">
<path opacity="0.3" d="M534.824 188.493L497.207 169.566C492.783 167.345 492.783 163.749 497.207 161.528L534.824 142.534C537.305 141.44 540.049 140.869 542.831 140.869C545.614 140.869 548.358 141.44 550.839 142.534L588.551 161.462C592.975 163.682 592.975 167.279 588.551 169.5L550.839 188.427C548.364 189.532 545.623 190.114 542.84 190.126C540.058 190.137 537.311 189.578 534.824 188.493V188.493Z" fill="#0F054C"/>
</g>
</g>
<path d="M542.832 165.821C540.357 165.86 537.91 165.352 535.721 164.346L498.009 145.418C497.118 145.147 496.346 144.641 495.801 143.971C495.255 143.302 494.962 142.502 494.962 141.681C494.962 140.86 495.255 140.06 495.801 139.391C496.346 138.721 497.118 138.216 498.009 137.944L535.721 119.016C537.927 118.052 540.363 117.549 542.832 117.549C545.302 117.549 547.738 118.052 549.944 119.016L587.656 137.944C588.547 138.216 589.318 138.721 589.864 139.391C590.41 140.06 590.703 140.86 590.703 141.681C590.703 142.502 590.41 143.302 589.864 143.971C589.318 144.641 588.547 145.147 587.656 145.418L549.944 164.346C547.755 165.352 545.308 165.86 542.832 165.821ZM542.832 118.105C540.476 118.069 538.147 118.554 536.064 119.514L498.333 138.441C497.55 138.667 496.868 139.102 496.386 139.683C495.903 140.265 495.643 140.964 495.643 141.681C495.643 142.398 495.903 143.097 496.386 143.679C496.868 144.261 497.55 144.695 498.333 144.921L536.064 163.848C538.165 164.772 540.487 165.253 542.842 165.253C545.197 165.253 547.518 164.772 549.62 163.848L587.332 144.921C588.115 144.695 588.796 144.261 589.279 143.679C589.762 143.097 590.022 142.398 590.022 141.681C590.022 140.964 589.762 140.265 589.279 139.683C588.796 139.102 588.115 138.667 587.332 138.441L549.62 119.514C547.53 118.554 545.195 118.069 542.832 118.105V118.105Z" fill="#42E8E0"/>
<path opacity="0.4" d="M591.869 134.413V123.193L589.505 122.049C588.838 125.546 584.09 127.867 580.124 128.347L553.089 142.087L541.306 145.849L503.651 128.961L504.528 128.53C501.306 127.22 499.571 124.237 497.836 121.502L495.3 122.812L493.794 123.193V134.596C493.916 135.458 494.295 136.277 494.893 136.972C495.492 137.667 496.29 138.213 497.207 138.557L534.824 157.451C537.305 158.546 540.049 159.116 542.832 159.116C545.614 159.116 548.358 158.546 550.839 157.451L588.552 138.524C589.448 138.17 590.225 137.621 590.806 136.93C591.387 136.239 591.753 135.429 591.869 134.579V134.38V134.413Z" fill="#42E8E0"/>
<path d="M591.869 124.436V117.011L589.505 115.867C588.838 119.364 584.09 121.685 580.124 122.165L553.089 135.905L541.306 139.601L503.651 122.646L504.528 122.215C501.306 120.906 499.571 117.922 497.836 115.188L495.3 116.497L493.794 116.878V124.486C493.894 125.35 494.253 126.177 494.835 126.884C495.417 127.591 496.202 128.152 497.112 128.513L534.824 147.507C537.308 148.594 540.05 149.16 542.832 149.16C545.613 149.16 548.355 148.594 550.839 147.507L588.552 128.579C589.448 128.226 590.225 127.677 590.806 126.986C591.387 126.295 591.753 125.485 591.869 124.635V124.436Z" fill="url(#paint12_linear_488_10853)"/>
<path opacity="0.3" d="M580.124 122.166L553.088 135.905L542.831 139.121V149.164C545.619 149.214 548.375 148.644 550.839 147.507L588.551 128.58C589.448 128.226 590.224 127.677 590.805 126.986C591.387 126.295 591.753 125.485 591.868 124.635V124.436V117.011L589.714 115.967H589.485C588.722 119.415 584.051 121.685 580.124 122.166Z" fill="#0F054C"/>
<path d="M504.528 122.281L540.277 104.414C541.072 104.067 541.951 103.887 542.841 103.887C543.731 103.887 544.609 104.067 545.405 104.414L580.506 122.032L580.124 122.231C584.09 121.751 588.837 119.43 589.505 115.933L550.095 96.8734L538.656 94.2382L529.314 99.0114L497.855 115.32C499.571 117.988 501.306 120.988 504.528 122.281Z" fill="url(#paint13_linear_488_10853)"/>
<path opacity="0.3" d="M542.831 95.1499L538.637 94.172L529.295 98.9452L497.836 115.254C499.571 117.989 501.306 120.972 504.528 122.281L540.277 104.415C541.058 104.04 541.939 103.851 542.831 103.868V95.1499Z" fill="#0F054C"/>
<path d="M534.824 139.949L497.207 120.989C492.783 118.784 492.783 115.171 497.207 112.95L534.919 94.0231C537.403 92.936 540.145 92.3697 542.927 92.3697C545.708 92.3697 548.45 92.936 550.934 94.0231L588.646 112.95C593.07 115.171 593.07 118.784 588.646 120.989L550.934 139.916C548.443 141.029 545.684 141.613 542.883 141.619C540.083 141.625 537.32 141.052 534.824 139.949ZM545.405 96.8572C544.609 96.5102 543.731 96.3295 542.841 96.3295C541.95 96.3295 541.072 96.5102 540.276 96.8572L502.564 115.784C502.25 115.873 501.976 116.046 501.782 116.278C501.588 116.51 501.483 116.79 501.483 117.077C501.483 117.364 501.588 117.644 501.782 117.876C501.976 118.109 502.25 118.281 502.564 118.37L540.276 137.297C541.072 137.644 541.95 137.825 542.841 137.825C543.731 137.825 544.609 137.644 545.405 137.297L583.117 118.37C583.423 118.273 583.686 118.098 583.873 117.866C584.059 117.635 584.159 117.36 584.159 117.077C584.159 116.795 584.059 116.519 583.873 116.288C583.686 116.057 583.423 115.881 583.117 115.784L545.405 96.8572Z" fill="url(#paint14_linear_488_10853)"/>
<path d="M583.117 115.718L545.405 96.7907C544.609 96.4437 543.731 96.263 542.84 96.263C541.95 96.263 541.072 96.4437 540.276 96.7907L502.564 115.718C501.61 116.199 501.305 116.862 501.61 117.475C501.825 117.122 502.157 116.833 502.564 116.646L540.276 97.7851C541.072 97.4381 541.95 97.2574 542.84 97.2574C543.731 97.2574 544.609 97.4381 545.405 97.7851L583.117 116.712C583.518 116.899 583.844 117.188 584.051 117.541C584.356 116.862 584.051 116.199 583.117 115.718Z" fill="white"/>
<path d="M588.553 120.988L550.84 139.916C548.359 141.01 545.615 141.581 542.833 141.581C540.05 141.581 537.306 141.01 534.825 139.916L497.208 120.988C496.385 120.656 495.661 120.163 495.092 119.548C494.523 118.933 494.125 118.212 493.929 117.442C493.886 118.389 494.178 119.325 494.764 120.125C495.35 120.924 496.202 121.549 497.208 121.916L534.825 140.877C537.306 141.972 540.05 142.542 542.833 142.542C545.615 142.542 548.359 141.972 550.84 140.877L588.553 121.95C589.558 121.583 590.411 120.957 590.997 120.158C591.583 119.358 591.874 118.422 591.832 117.475C591.63 118.239 591.23 118.953 590.661 119.562C590.093 120.171 589.371 120.659 588.553 120.988Z" fill="white"/>
<path d="M535.891 139.419L498.179 120.491C494.366 118.569 494.366 115.519 498.179 113.53L535.891 94.6032C538.04 93.6489 540.418 93.1512 542.831 93.1512C545.244 93.1512 547.622 93.6489 549.771 94.6032L587.483 113.53C591.296 115.453 591.296 118.503 587.483 120.491L549.771 139.419C547.622 140.373 545.244 140.871 542.831 140.871C540.418 140.871 538.04 140.373 535.891 139.419V139.419ZM546.453 96.3269C545.332 95.828 544.091 95.5678 542.831 95.5678C541.571 95.5678 540.33 95.828 539.208 96.3269L501.496 115.188C501.056 115.316 500.674 115.561 500.403 115.888C500.132 116.215 499.987 116.608 499.987 117.011C499.987 117.414 500.132 117.807 500.403 118.134C500.674 118.461 501.056 118.706 501.496 118.834L539.151 137.761C540.276 138.251 541.516 138.506 542.774 138.506C544.032 138.506 545.272 138.251 546.396 137.761L584.128 118.834C584.567 118.706 584.95 118.461 585.221 118.134C585.492 117.807 585.637 117.414 585.637 117.011C585.637 116.608 585.492 116.215 585.221 115.888C584.95 115.561 584.567 115.316 584.128 115.188L546.453 96.3269Z" fill="url(#paint15_linear_488_10853)"/>
<path opacity="0.4" d="M545.406 96.7907C544.61 96.4437 543.732 96.263 542.842 96.263C541.951 96.263 541.073 96.4437 540.277 96.7907L502.565 115.718C502.251 115.807 501.977 115.979 501.783 116.212C501.589 116.444 501.484 116.724 501.484 117.011C501.484 117.298 501.589 117.578 501.783 117.81C501.977 118.042 502.251 118.215 502.565 118.303L540.277 137.231C541.073 137.578 541.951 137.758 542.842 137.758C543.732 137.758 544.61 137.578 545.406 137.231L583.118 118.303C583.424 118.207 583.687 118.031 583.874 117.8C584.06 117.569 584.16 117.293 584.16 117.011C584.16 116.728 584.06 116.453 583.874 116.222C583.687 115.99 583.424 115.814 583.118 115.718L545.406 96.7907Z" fill="#42E8E0"/>
<path d="M516.956 154.978L429.566 197.225L429.556 224.582L429.397 224.821L375.697 251.189L375.167 250.605L428.729 224.168L428.74 196.81L429.332 196.471L516.427 154.394L516.956 154.978Z" fill="url(#paint16_linear_488_10853)"/>
<path opacity="0.5" d="M462.403 274.776L477.19 282.21V311.891L462.403 304.471V274.776Z" fill="#758EF5"/>
<path opacity="0.2" d="M447.616 282.21L462.403 289.63V304.471L447.616 297.051V282.21Z" fill="#758EF5"/>
<path opacity="0.5" d="M432.828 230.241L447.615 237.675V297.051L432.828 289.631V230.241Z" fill="#758EF5"/>
<path opacity="0.2" d="M418.026 207.98L432.828 215.4V289.63L418.026 282.21V207.98Z" fill="#758EF5"/>
<path opacity="0.5" d="M403.239 215.401L418.026 222.821V282.21L403.239 274.776V215.401Z" fill="#758EF5"/>
<path opacity="0.2" d="M388.451 163.445L403.238 170.865V274.776L388.451 267.356V163.445Z" fill="#758EF5"/>
<path opacity="0.5" d="M373.665 170.866L388.452 178.286V267.356L373.665 259.936V170.866Z" fill="#758EF5"/>
<path opacity="0.2" d="M358.879 178.285L373.666 185.706V259.935L358.879 252.515V178.285Z" fill="#758EF5"/>
<path opacity="0.5" d="M344.077 141.171L358.88 148.605V252.516L344.077 245.095V141.171Z" fill="#758EF5"/>
<path opacity="0.2" d="M329.29 104.069L344.077 111.489V245.095L329.29 237.661V104.069Z" fill="#758EF5"/>
<path opacity="0.5" d="M314.503 111.49L329.29 118.91V237.662L314.503 230.241V111.49Z" fill="#758EF5"/>
<path opacity="0.2" d="M299.716 74.3746L314.503 81.7949V230.241L299.716 222.821V74.3746Z" fill="#758EF5"/>
<path opacity="0.5" d="M284.913 66.9543L299.715 74.3747V222.821L284.913 215.4V66.9543Z" fill="#758EF5"/>
<path opacity="0.2" d="M270.127 29.8395L284.914 37.2599V215.401L270.127 207.98V29.8395Z" fill="#758EF5"/>
<path opacity="0.4" d="M284.653 422.017C359.475 422.017 420.129 391.577 420.129 354.028C420.129 316.479 359.475 286.04 284.653 286.04C209.832 286.04 149.178 316.479 149.178 354.028C149.178 391.577 209.832 422.017 284.653 422.017Z" fill="#0F054C"/>
<path d="M284.654 394.985C369.814 394.985 438.849 360.34 438.849 317.602C438.849 274.864 369.814 240.219 284.654 240.219C199.494 240.219 130.458 274.864 130.458 317.602C130.458 360.34 199.494 394.985 284.654 394.985Z" fill="url(#paint17_linear_488_10853)"/>
<path opacity="0.48" d="M438.865 292.122H435.054C428.865 278.341 415.084 265.236 393.696 254.517C333.482 224.292 235.842 224.292 175.704 254.517C155.505 264.653 142.166 276.897 135.444 289.843H130.611V307.002C129.407 327.554 144.438 348.304 175.704 363.98C235.918 394.191 333.558 394.191 393.773 363.98C423.88 348.861 438.941 329.064 438.941 309.255L438.865 292.122Z" fill="url(#paint18_linear_488_10853)"/>
<path opacity="0.48" d="M435.054 285.469C434.841 284.992 434.612 284.515 434.368 284.038V272.762H426.289V271.954C424.178 269.492 421.886 267.15 419.429 264.944V272.762H414.856V261.062C412.711 259.366 410.415 257.705 407.965 256.08V272.789H403.392V253.112C401.182 251.786 398.819 250.461 396.471 249.216V272.722H391.898V246.884C389.642 245.78 387.33 244.719 384.962 243.704V272.722H380.389V241.862C378.102 240.978 375.785 240.095 373.437 239.212V272.722H368.864V245.625H361.897V272.762H357.324V253.112H350.327V272.802H345.754V260.558H338.741V272.802H334.259V268.018H327.293V272.802H242.138V268.018H235.096V272.802H230.614V260.558H223.632V272.802H219.059V253.112H212.062V272.802H207.488V245.625H200.522V272.762H195.948V239.225C193.601 240.055 191.284 240.939 188.997 241.875V272.802H184.424V243.717C182.061 244.737 179.744 245.784 177.488 246.884V272.762H172.914V249.216C170.506 250.47 168.199 251.764 165.994 253.098V272.762H161.42V256.013C158.966 257.63 156.679 259.3 154.53 260.996V272.762H149.957V264.812C147.508 267.02 145.217 269.357 143.097 271.808V272.696H135.017V283.098H131.587V311.865C132.924 317.236 135.235 322.388 138.432 327.129V309.201H143.097V333.277C145.209 335.73 147.5 338.063 149.957 340.261V309.201H154.53V344.156C156.679 345.839 158.981 347.509 161.42 349.125V309.201H165.994V352.04C168.209 353.365 170.516 354.664 172.914 355.936V309.201H177.488V358.228C179.744 359.315 182.056 360.37 184.424 361.395V309.201H188.997V363.303C191.284 364.187 193.601 365.07 195.948 365.953V309.241H200.522V367.543C202.808 368.299 205.095 369.014 207.488 369.703V309.201H212.062V370.869C214.379 371.492 216.635 372.075 219.059 372.632V309.201H223.632V373.692C225.949 374.182 228.281 374.659 230.644 375.096V309.241H235.126V375.905C237.458 376.302 239.806 376.66 242.169 377.004V309.201H246.636V377.561C248.968 377.866 251.331 378.131 253.694 378.382V309.201H258.13V378.806C260.477 379.005 262.84 379.177 265.218 379.336V309.201H269.624V379.588C272.002 379.694 274.365 379.787 276.743 379.853V309.201H281.133V379.933C283.532 379.933 285.925 379.933 288.313 379.933V309.201H292.704V379.853C295.082 379.853 297.445 379.694 299.823 379.588V309.201H304.228V379.336C306.606 379.177 308.969 379.005 311.317 378.793V309.201H315.753V378.369C318.116 378.131 320.479 377.852 322.811 377.561V309.201H327.293V376.951C329.656 376.62 332.003 376.249 334.336 375.852V309.201H338.817V375.017C341.18 374.566 343.513 374.102 345.83 373.599V309.201H350.403V372.618C352.751 372.062 355.083 371.466 357.4 370.856V309.201H361.973V369.584C364.321 368.908 366.653 368.259 368.94 367.437V309.201H373.513V365.887C375.861 365.052 378.178 364.191 380.465 363.237V309.201H385.038V361.395C387.406 360.37 389.718 359.315 391.974 358.228V309.201H396.547V355.909C398.956 354.637 401.263 353.334 403.468 352.001V309.201H408.042V349.085C410.481 347.451 412.777 345.79 414.932 344.103V309.201H419.505V340.221C421.966 338.017 424.258 335.676 426.365 333.211V309.201H430.954V327.076C434.176 322.294 436.488 317.09 437.798 311.666V285.483L435.054 285.469Z" fill="url(#paint19_linear_488_10853)"/>
<path d="M284.654 362.88C369.814 362.88 438.849 328.234 438.849 285.496C438.849 242.759 369.814 208.113 284.654 208.113C199.494 208.113 130.458 242.759 130.458 285.496C130.458 328.234 199.494 362.88 284.654 362.88Z" fill="url(#paint20_linear_488_10853)"/>
<path opacity="0.3" d="M284.715 208.06C249.775 208.06 214.836 213.983 186.39 225.815L140.383 312.739C147.883 322.743 159.606 332.111 175.627 340.155C185.967 345.272 196.883 349.454 208.204 352.637L284.715 208.06Z" fill="#91A2FA"/>
<path opacity="0.3" d="M327.916 211.213L248.768 360.759C267.895 363.017 287.246 363.461 306.483 362.084L379.335 224.424C362.913 218.134 345.634 213.694 327.916 211.213V211.213Z" fill="#91A2FA"/>
<g opacity="0.05">
<path opacity="0.05" d="M284.654 354.028C360.073 354.028 421.212 323.345 421.212 285.496C421.212 247.647 360.073 216.964 284.654 216.964C209.236 216.964 148.096 247.647 148.096 285.496C148.096 323.345 209.236 354.028 284.654 354.028Z" fill="url(#paint21_linear_488_10853)"/>
<g opacity="0.05">
<path opacity="0.05" d="M40.7314 285.205L39.2679 284.463L277.17 165.075L278.633 165.817L40.7314 285.205Z" fill="#91A2FA"/>
<path opacity="0.05" d="M44.9232 287.298L43.4598 286.569L281.361 167.182L282.825 167.91L44.9232 287.298Z" fill="#91A2FA"/>
<path opacity="0.05" d="M49.1161 289.405L47.6526 288.677L285.554 169.289L287.018 170.018L49.1161 289.405Z" fill="#91A2FA"/>
<path opacity="0.05" d="M53.3079 291.512L51.8445 290.783L289.746 171.396L291.21 172.124L53.3079 291.512Z" fill="#91A2FA"/>
<path opacity="0.05" d="M57.5003 293.619L56.0368 292.877L293.938 173.489L295.402 174.231L57.5003 293.619Z" fill="#91A2FA"/>
<path opacity="0.05" d="M61.6922 295.712L60.2287 294.983L298.13 175.596L299.594 176.325L61.6922 295.712Z" fill="#91A2FA"/>
<path opacity="0.05" d="M65.8845 297.819L64.421 297.09L302.323 177.702L303.771 178.431L65.8845 297.819Z" fill="#91A2FA"/>
<path opacity="0.05" d="M70.0769 299.926L68.6134 299.197L306.515 179.809L307.963 180.538L70.0769 299.926Z" fill="#91A2FA"/>
<path opacity="0.05" d="M74.2687 302.033L72.8053 301.291L310.707 181.904L312.155 182.632L74.2687 302.033Z" fill="#91A2FA"/>
<path opacity="0.05" d="M78.4611 304.127L76.9976 303.398L314.899 184.01L316.347 184.739L78.4611 304.127Z" fill="#91A2FA"/>
<path opacity="0.05" d="M82.6377 306.233L81.1895 305.504L319.091 186.117L320.539 186.846L82.6377 306.233Z" fill="#91A2FA"/>
<path opacity="0.05" d="M86.83 308.34L85.3818 307.611L323.283 188.224L324.732 188.953L86.83 308.34Z" fill="#91A2FA"/>
<path opacity="0.05" d="M91.0224 310.434L89.5742 309.705L327.476 190.317L328.924 191.046L91.0224 310.434Z" fill="#91A2FA"/>
<path opacity="0.05" d="M95.2147 312.541L93.7665 311.812L331.668 192.424L333.116 193.153L95.2147 312.541Z" fill="#91A2FA"/>
<path opacity="0.05" d="M99.4066 314.647L97.9584 313.918L335.86 194.531L337.308 195.259L99.4066 314.647Z" fill="#91A2FA"/>
<path opacity="0.05" d="M103.599 316.754L102.136 316.025L340.038 196.624L341.501 197.366L103.599 316.754Z" fill="#91A2FA"/>
<path opacity="0.05" d="M107.791 318.861L106.328 318.119L344.229 198.731L345.693 199.46L107.791 318.861Z" fill="#91A2FA"/>
<path opacity="0.05" d="M111.984 320.955L110.52 320.226L348.422 200.839L349.885 201.567L111.984 320.955Z" fill="#91A2FA"/>
<path opacity="0.05" d="M116.175 323.061L114.712 322.333L352.614 202.945L354.077 203.674L116.175 323.061Z" fill="#91A2FA"/>
<path opacity="0.05" d="M120.368 325.168L118.904 324.426L356.806 205.039L358.269 205.781L120.368 325.168Z" fill="#91A2FA"/>
<path opacity="0.05" d="M124.56 327.262L123.097 326.533L360.998 207.145L362.462 207.874L124.56 327.262Z" fill="#91A2FA"/>
<path opacity="0.05" d="M128.752 329.369L127.289 328.64L365.19 209.252L366.654 209.981L128.752 329.369Z" fill="#91A2FA"/>
<path opacity="0.05" d="M132.944 331.476L131.481 330.747L369.383 211.359L370.846 212.088L132.944 331.476Z" fill="#91A2FA"/>
<path opacity="0.05" d="M137.136 333.582L135.673 332.854L373.574 213.453L375.038 214.195L137.136 333.582Z" fill="#91A2FA"/>
<path opacity="0.05" d="M141.329 335.676L139.865 334.947L377.767 215.559L379.23 216.288L141.329 335.676Z" fill="#91A2FA"/>
<path opacity="0.05" d="M145.521 337.782L144.057 337.054L381.959 217.666L383.407 218.395L145.521 337.782Z" fill="#91A2FA"/>
<path opacity="0.05" d="M149.713 339.889L148.25 339.161L386.151 219.773L387.6 220.502L149.713 339.889Z" fill="#91A2FA"/>
<path opacity="0.05" d="M153.89 341.996L152.442 341.254L390.343 221.867L391.792 222.609L153.89 341.996Z" fill="#91A2FA"/>
<path opacity="0.05" d="M158.082 344.09L156.634 343.361L394.535 223.974L395.983 224.702L158.082 344.09Z" fill="#91A2FA"/>
<path opacity="0.05" d="M162.274 346.197L160.826 345.468L398.728 226.08L400.176 226.809L162.274 346.197Z" fill="#91A2FA"/>
<path opacity="0.05" d="M166.466 348.303L165.018 347.574L402.92 228.187L404.368 228.916L166.466 348.303Z" fill="#91A2FA"/>
<path opacity="0.05" d="M170.659 350.411L169.211 349.669L407.112 230.281L408.56 231.01L170.659 350.411Z" fill="#91A2FA"/>
<path opacity="0.05" d="M174.851 352.504L173.402 351.775L411.289 232.388L412.752 233.116L174.851 352.504Z" fill="#91A2FA"/>
<path opacity="0.05" d="M179.043 354.611L177.594 353.882L415.496 234.495L416.944 235.223L179.043 354.611Z" fill="#91A2FA"/>
<path opacity="0.05" d="M183.235 356.718L181.787 355.989L419.673 236.588L421.137 237.33L183.235 356.718Z" fill="#91A2FA"/>
<path opacity="0.05" d="M187.427 358.825L185.979 358.083L423.865 238.695L425.329 239.437L187.427 358.825Z" fill="#91A2FA"/>
<path opacity="0.05" d="M191.62 360.918L190.156 360.189L428.058 240.802L429.521 241.53L191.62 360.918Z" fill="#91A2FA"/>
<path opacity="0.05" d="M195.812 363.025L194.348 362.297L432.25 242.909L433.714 243.638L195.812 363.025Z" fill="#91A2FA"/>
<path opacity="0.05" d="M200.004 365.132L198.541 364.403L436.442 245.002L437.906 245.744L200.004 365.132Z" fill="#91A2FA"/>
<path opacity="0.05" d="M204.196 367.239L202.732 366.497L440.634 247.109L442.097 247.851L204.196 367.239Z" fill="#91A2FA"/>
<path opacity="0.05" d="M208.388 369.332L206.924 368.604L444.826 249.216L446.29 249.945L208.388 369.332Z" fill="#91A2FA"/>
<path opacity="0.05" d="M212.581 371.439L211.118 370.71L449.02 251.322L450.483 252.051L212.581 371.439Z" fill="#91A2FA"/>
<path opacity="0.05" d="M216.773 373.546L215.309 372.818L453.211 253.43L454.674 254.159L216.773 373.546Z" fill="#91A2FA"/>
<path opacity="0.05" d="M220.965 375.653L219.502 374.911L457.403 255.524L458.867 256.252L220.965 375.653Z" fill="#91A2FA"/>
<path opacity="0.05" d="M225.157 377.747L223.694 377.018L461.596 257.63L463.059 258.359L225.157 377.747Z" fill="#91A2FA"/>
<path opacity="0.05" d="M229.35 379.853L227.886 379.124L465.788 259.737L467.251 260.466L229.35 379.853Z" fill="#91A2FA"/>
<path opacity="0.05" d="M233.541 381.96L232.078 381.231L469.979 261.831L471.443 262.573L233.541 381.96Z" fill="#91A2FA"/>
<path opacity="0.05" d="M237.733 384.054L236.27 383.325L474.172 263.937L475.62 264.666L237.733 384.054Z" fill="#91A2FA"/>
<path opacity="0.05" d="M241.926 386.161L240.462 385.432L478.364 266.045L479.812 266.773L241.926 386.161Z" fill="#91A2FA"/>
<path opacity="0.05" d="M246.102 388.268L244.654 387.539L482.555 268.151L484.004 268.88L246.102 388.268Z" fill="#91A2FA"/>
<path opacity="0.05" d="M250.294 390.375L248.846 389.646L486.748 270.245L488.196 270.987L250.294 390.375Z" fill="#91A2FA"/>
<path opacity="0.05" d="M254.488 392.468L253.039 391.739L490.941 272.352L492.389 273.08L254.488 392.468Z" fill="#91A2FA"/>
<path opacity="0.05" d="M258.68 394.575L257.232 393.846L495.133 274.458L496.582 275.187L258.68 394.575Z" fill="#91A2FA"/>
<path opacity="0.05" d="M262.871 396.682L261.423 395.953L499.325 276.566L500.773 277.294L262.871 396.682Z" fill="#91A2FA"/>
<path opacity="0.05" d="M267.063 398.789L265.599 398.047L503.501 278.659L504.964 279.401L267.063 398.789Z" fill="#91A2FA"/>
<path opacity="0.05" d="M271.255 400.882L269.792 400.154L507.693 280.766L509.157 281.495L271.255 400.882Z" fill="#91A2FA"/>
<path opacity="0.05" d="M275.447 402.989L273.984 402.26L511.886 282.872L513.349 283.601L275.447 402.989Z" fill="#91A2FA"/>
<path opacity="0.05" d="M279.639 405.096L278.175 404.367L516.077 284.979L517.54 285.708L279.639 405.096Z" fill="#91A2FA"/>
<path opacity="0.05" d="M283.831 407.202L282.368 406.46L520.269 287.072L521.733 287.814L283.831 407.202Z" fill="#91A2FA"/>
<path opacity="0.05" d="M288.023 409.297L286.56 408.568L524.462 289.18L525.925 289.909L288.023 409.297Z" fill="#91A2FA"/>
<path opacity="0.05" d="M292.215 411.403L290.751 410.674L528.653 291.287L530.116 292.016L292.215 411.403Z" fill="#91A2FA"/>
</g>
</g>
<path d="M188.098 241.65C241.453 214.897 327.887 214.897 381.227 241.65C406.715 254.45 420.008 271.04 421.136 287.802C422.356 269.503 409.063 251.005 381.227 237.039C327.872 210.273 241.422 210.273 188.098 237.039C160.262 251.005 146.938 269.503 148.188 287.802C149.316 271.04 162.655 254.437 188.098 241.65Z" fill="url(#paint22_linear_488_10853)"/>
<path d="M204.897 253.642V260.691L211.909 257.166L204.897 253.642Z" fill="url(#paint23_linear_488_10853)"/>
<path d="M225.949 243.081V250.13L233.022 246.646L225.949 243.081Z" fill="url(#paint24_linear_488_10853)"/>
<path d="M308.695 257.179V265.553L302.353 262.175L308.695 257.179Z" fill="url(#paint25_linear_488_10853)"/>
<path d="M286.545 221.006C281.162 221.103 275.84 219.999 271.087 217.799C266.789 215.652 264.426 212.737 264.426 209.61C264.426 206.483 266.789 203.581 271.087 201.421C279.609 197.155 293.481 197.155 302.018 201.421C306.302 203.581 308.664 206.496 308.664 209.61C308.664 212.724 306.302 215.652 302.018 217.799C297.26 219.999 291.933 221.103 286.545 221.006V221.006ZM286.545 199.672C281.455 199.591 276.424 200.635 271.926 202.707C268.191 204.588 266.133 207.039 266.133 209.61C266.133 212.181 268.191 214.645 271.941 216.527C279.99 220.568 293.1 220.568 301.164 216.527C304.899 214.645 306.972 212.194 306.972 209.61C306.972 207.026 304.899 204.588 301.164 202.707C296.666 200.633 291.635 199.589 286.545 199.672V199.672Z" fill="#91A2FA"/>
<path d="M295.707 214.208C292.874 215.46 289.74 216.113 286.561 216.113C283.382 216.113 280.248 215.46 277.414 214.208C272.353 211.677 272.353 207.583 277.414 205.025C280.248 203.773 283.382 203.121 286.561 203.121C289.74 203.121 292.874 203.773 295.707 205.025C300.753 207.556 300.753 211.677 295.707 214.208Z" fill="#97A6FC"/>
<path d="M339.945 187.362L330.874 182.817L346.317 175.066L355.402 179.61L339.945 187.362Z" fill="#91A2FA"/>
<path opacity="0.8" d="M323.633 180.181L312.2 177.252L322.124 167.487L333.557 170.415L323.633 180.181Z" fill="#91A2FA"/>
<path opacity="0.6" d="M303.695 175.861L291.027 174.854L294.442 164.028L307.11 165.035L303.695 175.861Z" fill="#91A2FA"/>
<path opacity="0.4" d="M282.078 174.854L269.394 175.861L265.98 165.035L278.648 164.028L282.078 174.854Z" fill="#91A2FA"/>
<path opacity="0.2" d="M260.889 177.252L249.455 180.181L239.547 170.402L250.965 167.487L260.889 177.252Z" fill="#91A2FA"/>
<path opacity="0.1" d="M242.214 182.817L233.144 187.362L217.701 179.61L226.771 175.066L242.214 182.817Z" fill="#91A2FA"/>
<path opacity="0.2" d="M309.67 199.619L306.484 198.015L329.534 186.448L332.72 188.051L309.67 199.619Z" fill="#91A2FA"/>
<path opacity="0.4" d="M302.369 196.518L298.359 195.485L313.162 180.909L317.171 181.943L302.369 196.518Z" fill="#91A2FA"/>
<path opacity="0.6" d="M293.542 194.703L289.091 194.345L294.182 178.193L298.634 178.551L293.542 194.703Z" fill="#91A2FA"/>
<path opacity="0.8" d="M284.015 194.345L279.563 194.703L274.456 178.551L278.908 178.193L284.015 194.345Z" fill="#91A2FA"/>
<path d="M274.731 195.485L270.721 196.518L255.919 181.943L259.944 180.909L274.731 195.485Z" fill="#91A2FA"/>
<path d="M266.62 198.015L263.434 199.619L240.385 188.051L243.571 186.448L266.62 198.015Z" fill="#91A2FA"/>
<path d="M260.447 201.673L258.404 203.687L229.364 196.253L231.406 194.239L260.447 201.673Z" fill="#91A2FA"/>
<path d="M256.833 206.112L256.131 208.338L223.936 205.78L224.637 203.541L256.833 206.112Z" fill="#91A2FA"/>
<path d="M256.131 210.882L256.833 213.121L224.637 215.679L223.936 213.439L256.131 210.882Z" fill="#91A2FA"/>
<path d="M258.404 215.546L260.447 217.56L231.406 224.981L229.364 222.966L258.404 215.546Z" fill="#91A2FA"/>
<path d="M263.434 219.614L266.62 221.218L243.571 232.785L240.385 231.182L263.434 219.614Z" fill="#91A2FA"/>
<path opacity="0.6" d="M377.08 172.058C410.968 192.569 412.859 221.893 382.797 243.412L394.992 253.178C436.472 227.233 435.557 189.88 392.294 164.399L377.08 172.058Z" fill="#97A6FC"/>
<g opacity="0.2">
<path d="M263.061 250.032C259.26 248.158 256.068 245.693 254.722 243.337C254.422 242.826 254.219 242.304 254.117 241.783L251.732 240.812C251.826 241.513 252.079 242.217 252.486 242.905C254.194 245.882 258.389 249.012 263.294 251.271L263.061 250.032Z" fill="#91A2FA"/>
<path d="M347.488 294.473C341.365 290.938 331.318 288.997 317.653 288.721C311.219 288.582 304.907 288.833 300.096 289.136C300.096 289.136 299.568 293.4 299.071 298.035C303.698 297.732 310.103 297.393 316.659 297.531C328.823 297.755 334.121 299.433 336.479 300.794C345.295 305.884 345.038 314.305 335.868 319.598C326.791 324.839 312.206 324.988 303.298 319.951C302.869 319.703 302.44 319.385 301.951 318.961C303.326 321.136 305.254 323.24 307.856 324.743C324.02 334.075 338.397 329.451 339.378 329.096C341.892 328.175 344.314 327.095 346.522 325.82C361.733 317.003 362.183 302.957 347.488 294.473Z" fill="#91A2FA"/>
<path d="M235.867 293.697C241.99 297.232 252.037 299.173 265.702 299.449C272.136 299.587 278.449 299.337 283.26 299.033C283.26 299.033 283.787 294.77 284.284 290.135C279.657 290.438 273.253 290.777 266.696 290.639C254.593 290.38 249.203 288.719 246.877 287.376C238.06 282.286 238.317 273.865 247.487 268.571C256.564 263.33 271.149 263.182 280.058 268.219C280.486 268.466 280.915 268.785 281.404 269.209C280.029 267.034 278.102 264.93 275.499 263.427C259.366 254.077 244.989 258.701 243.977 259.073C241.463 259.995 239.041 261.075 236.833 262.35C221.592 271.149 221.142 285.195 235.867 293.697Z" fill="#91A2FA"/>
<path fill-rule="evenodd" clip-rule="evenodd" d="M285.004 279.538C284.946 277.521 283.336 268.483 275.315 263.569C260.928 254.837 245.878 258.542 244.1 259.109C258.968 253.812 278.485 254.705 291.036 261.88C301.231 267.766 301.52 279.512 300.096 289.136L300.157 289.136C300.157 289.136 299.63 293.4 299.133 298.035C299.133 298.035 298.359 303.431 298.443 308.614C298.501 310.631 300.173 319.599 308.193 324.512C322.918 333.509 338.458 329.38 339.531 329.008C324.632 334.393 305.054 333.5 292.442 326.289C282.247 320.403 281.958 308.657 283.351 299.016C283.321 299.033 283.29 299.016 283.26 299.033C283.26 299.033 283.787 294.77 284.284 290.135C284.315 290.152 285.119 284.739 285.004 279.538Z" fill="#91A2FA"/>
</g>
<path d="M149.073 219.508L169.759 215.931C166.1 198.811 177.381 181.042 203.479 167.924C246.712 146.233 315.235 144.987 361.394 164.174L376.562 156.568C322.003 133.194 239.928 134.44 188.342 160.331C156.192 176.457 143.112 198.533 149.073 219.508Z" fill="#97A6FC"/>
<path d="M273.877 248.593L265.782 244.539L369.718 192.371L377.812 196.426L273.877 248.593Z" fill="#97A6FC"/>
<path opacity="0.8" d="M285.371 254.37L277.276 250.302L322.46 227.631L330.555 231.699L285.371 254.37Z" fill="#97A6FC"/>
<path opacity="0.6" d="M297.674 260.545L289.579 256.477L361.501 220.396L369.596 224.451L297.674 260.545Z" fill="#97A6FC"/>
<path opacity="0.2" d="M309.792 266.614L301.682 262.559L357.674 234.468L365.769 238.523L309.792 266.614Z" fill="#97A6FC"/>
<g clip-path="url(#clip0_488_10853)">
<path d="M350.026 292.467C343.462 288.677 332.704 286.588 318.082 286.276C311.196 286.12 304.443 286.381 299.296 286.699C299.296 286.699 298.748 291.261 298.233 296.22C303.183 295.901 310.034 295.546 317.051 295.702C330.067 295.956 335.742 297.758 338.269 299.217C347.722 304.675 347.477 313.685 337.685 319.338C327.992 324.935 312.386 325.076 302.835 319.675C302.376 319.41 301.916 319.069 301.391 318.614C302.87 320.943 304.94 323.197 307.73 324.808C325.06 334.813 340.427 329.883 341.475 329.505C344.162 328.523 346.75 327.37 349.107 326.008C365.351 316.592 365.781 301.563 350.026 292.467Z" fill="url(#paint26_linear_488_10853)"/>
<path d="M230.588 291.501C237.152 295.291 247.91 297.38 262.533 297.692C269.418 297.848 276.171 297.587 281.318 297.269C281.318 297.269 281.866 292.707 282.381 287.749C277.431 288.067 270.58 288.422 263.563 288.266C250.613 287.974 244.839 286.191 242.345 284.751C232.892 279.293 233.137 270.284 242.929 264.63C252.622 259.034 268.228 258.892 277.779 264.293C278.238 264.558 278.698 264.899 279.223 265.354C277.744 263.025 275.674 260.771 272.884 259.16C255.587 249.136 240.22 254.066 239.139 254.463C236.452 255.446 233.865 256.599 231.507 257.96C215.23 267.357 214.8 282.386 230.588 291.501Z" fill="url(#paint27_linear_488_10853)"/>
<path d="M245.744 253.003C247.282 252.864 249.026 252.783 250.925 252.816C257.268 252.927 265.302 254.317 273.131 259.068L273.133 259.069C277.536 261.766 280.159 265.568 281.692 268.937C283.227 272.312 283.69 275.297 283.726 276.404L283.726 276.406C283.797 279.199 283.621 282.047 283.424 284.192C283.326 285.266 283.222 286.164 283.14 286.794C283.099 287.109 283.064 287.357 283.038 287.526C283.025 287.611 283.014 287.677 283.005 287.723C283.003 287.733 283.002 287.743 283 287.753C282.997 287.763 282.995 287.773 282.993 287.782C282.992 287.785 282.991 287.79 282.99 287.795C282.733 290.266 282.468 292.637 282.267 294.392C282.174 295.21 282.094 295.894 282.035 296.392L282.162 296.32L282.026 297.279C281.3 302.426 281.028 308.117 282.291 313.3C283.556 318.489 286.348 323.118 291.675 326.194C303.354 332.871 320.674 334.435 335.347 330.893C333.864 331.033 332.181 331.122 330.346 331.105C323.92 331.048 315.659 329.701 307.645 324.805L307.645 324.805C303.243 322.108 300.604 318.326 299.054 314.975C297.502 311.621 297.023 308.653 296.987 307.545L296.987 307.543C296.932 304.759 297.107 301.922 297.296 299.781C297.391 298.711 297.489 297.814 297.563 297.184C297.6 296.87 297.631 296.622 297.653 296.452C297.664 296.368 297.673 296.302 297.679 296.259L297.686 296.209L297.687 296.199C297.687 296.197 297.687 296.196 297.688 296.195M245.744 253.003L299.32 287.053C299.182 288.215 298.728 292.079 298.298 296.22C297.688 296.191 297.688 296.191 297.688 296.191L297.688 296.192L297.688 296.192L297.688 296.195M245.744 253.003C260.341 249.584 277.502 251.161 289.071 257.775C294.398 260.851 297.189 265.48 298.45 270.666C299.709 275.846 299.429 281.532 298.686 286.67L298.631 287.053L298.706 287.053M297.688 296.195C297.945 293.716 298.211 291.337 298.412 289.577C298.513 288.696 298.598 287.971 298.657 287.466C298.676 287.305 298.693 287.167 298.706 287.053M297.688 296.195L298.706 287.053" fill="url(#paint28_linear_488_10853)" stroke="#AAC4F9"/>
</g>
<defs>
<linearGradient id="paint0_linear_488_10853" x1="504.544" y1="451.955" x2="576.547" y2="499.796" gradientUnits="userSpaceOnUse">
<stop stop-color="#BCBEFF"/>
<stop offset="0.23" stop-color="#AAADF8"/>
<stop offset="0.68" stop-color="#7C83E5"/>
<stop offset="1" stop-color="#5761D7"/>
</linearGradient>
<linearGradient id="paint1_linear_488_10853" x1="494.778" y1="466.722" x2="592.882" y2="466.722" gradientUnits="userSpaceOnUse">
<stop stop-color="#E9E9FD"/>
<stop offset="0.36" stop-color="#D3D2F9"/>
<stop offset="0.71" stop-color="#C5C4F7"/>
<stop offset="1" stop-color="#C0BFF6"/>
</linearGradient>
<linearGradient id="paint2_linear_488_10853" x1="51401.7" y1="8123.71" x2="52809.8" y2="10477.5" gradientUnits="userSpaceOnUse">
<stop stop-color="#BCBEFF"/>
<stop offset="0.23" stop-color="#AAADF8"/>
<stop offset="0.68" stop-color="#7C83E5"/>
<stop offset="1" stop-color="#5761D7"/>
</linearGradient>
<linearGradient id="paint3_linear_488_10853" x1="50868.6" y1="12000.4" x2="55914.3" y2="12000.4" gradientUnits="userSpaceOnUse">
<stop stop-color="#E9E9FD"/>
<stop offset="0.36" stop-color="#D3D2F9"/>
<stop offset="0.71" stop-color="#C5C4F7"/>
<stop offset="1" stop-color="#C0BFF6"/>
</linearGradient>
<linearGradient id="paint4_linear_488_10853" x1="358.28" y1="386.618" x2="525.259" y2="386.618" gradientUnits="userSpaceOnUse">
<stop stop-color="#5778FF"/>
<stop offset="0.1042" stop-color="#567FFF"/>
<stop offset="0.2607" stop-color="#5394FF"/>
<stop offset="0.4503" stop-color="#4DB6FF"/>
<stop offset="0.6638" stop-color="#46E4FF"/>
<stop offset="0.7742" stop-color="#42FFFF"/>
</linearGradient>
<linearGradient id="paint5_linear_488_10853" x1="42261.9" y1="10095.5" x2="43670" y2="12449.3" gradientUnits="userSpaceOnUse">
<stop stop-color="#BCBEFF"/>
<stop offset="0.23" stop-color="#AAADF8"/>
<stop offset="0.68" stop-color="#7C83E5"/>
<stop offset="1" stop-color="#5761D7"/>
</linearGradient>
<linearGradient id="paint6_linear_488_10853" x1="41753.2" y1="14868.4" x2="46802.3" y2="14868.4" gradientUnits="userSpaceOnUse">
<stop stop-color="#E9E9FD"/>
<stop offset="0.36" stop-color="#D3D2F9"/>
<stop offset="0.71" stop-color="#C5C4F7"/>
<stop offset="1" stop-color="#C0BFF6"/>
</linearGradient>
<linearGradient id="paint7_linear_488_10853" x1="42261.9" y1="8945.45" x2="43669.5" y2="11298.6" gradientUnits="userSpaceOnUse">
<stop stop-color="#BCBEFF"/>
<stop offset="0.23" stop-color="#AAADF8"/>
<stop offset="0.68" stop-color="#7C83E5"/>
<stop offset="1" stop-color="#5761D7"/>
</linearGradient>
<linearGradient id="paint8_linear_488_10853" x1="41753.2" y1="13218" x2="46802.3" y2="13218" gradientUnits="userSpaceOnUse">
<stop stop-color="#E9E9FD"/>
<stop offset="0.36" stop-color="#D3D2F9"/>
<stop offset="0.71" stop-color="#C5C4F7"/>
<stop offset="1" stop-color="#C0BFF6"/>
</linearGradient>
<linearGradient id="paint9_linear_488_10853" x1="220.127" y1="400.447" x2="53.1521" y2="401.582" gradientUnits="userSpaceOnUse">
<stop stop-color="#5778FF"/>
<stop offset="0.1042" stop-color="#567FFF"/>
<stop offset="0.2607" stop-color="#5394FF"/>
<stop offset="0.4503" stop-color="#4DB6FF"/>
<stop offset="0.6638" stop-color="#46E4FF"/>
<stop offset="0.7742" stop-color="#42FFFF"/>
</linearGradient>
<linearGradient id="paint10_linear_488_10853" x1="26123.7" y1="4400.79" x2="27532" y2="6752.78" gradientUnits="userSpaceOnUse">
<stop stop-color="#BCBEFF"/>
<stop offset="0.23" stop-color="#AAADF8"/>
<stop offset="0.68" stop-color="#7C83E5"/>
<stop offset="1" stop-color="#5761D7"/>
</linearGradient>
<linearGradient id="paint11_linear_488_10853" x1="25597.2" y1="6735.87" x2="30637.3" y2="6735.87" gradientUnits="userSpaceOnUse">
<stop stop-color="#E9E9FD"/>
<stop offset="0.36" stop-color="#D3D2F9"/>
<stop offset="0.71" stop-color="#C5C4F7"/>
<stop offset="1" stop-color="#C0BFF6"/>
</linearGradient>
<linearGradient id="paint12_linear_488_10853" x1="26123.7" y1="3365.99" x2="27536.3" y2="5720.3" gradientUnits="userSpaceOnUse">
<stop stop-color="#BCBEFF"/>
<stop offset="0.23" stop-color="#AAADF8"/>
<stop offset="0.68" stop-color="#7C83E5"/>
<stop offset="1" stop-color="#5761D7"/>
</linearGradient>
<linearGradient id="paint13_linear_488_10853" x1="508.227" y1="99.6246" x2="572.419" y2="142.259" gradientUnits="userSpaceOnUse">
<stop offset="0.24" stop-color="#5761D7"/>
<stop offset="0.39" stop-color="#7A82E5"/>
<stop offset="0.55" stop-color="#979CF0"/>
<stop offset="0.7" stop-color="#ACAFF8"/>
<stop offset="0.85" stop-color="#B8BAFD"/>
<stop offset="1" stop-color="#BCBEFF"/>
</linearGradient>
<linearGradient id="paint14_linear_488_10853" x1="25621.6" y1="5243.85" x2="30666.6" y2="5243.85" gradientUnits="userSpaceOnUse">
<stop stop-color="#E9E9FD"/>
<stop offset="0.36" stop-color="#D3D2F9"/>
<stop offset="0.71" stop-color="#C5C4F7"/>
<stop offset="1" stop-color="#C0BFF6"/>
</linearGradient>
<linearGradient id="paint15_linear_488_10853" x1="24916.6" y1="5084.6" x2="29654.5" y2="5084.6" gradientUnits="userSpaceOnUse">
<stop stop-color="#E9E9FD"/>
<stop offset="0.36" stop-color="#D3D2F9"/>
<stop offset="0.71" stop-color="#C5C4F7"/>
<stop offset="1" stop-color="#C0BFF6"/>
</linearGradient>
<linearGradient id="paint16_linear_488_10853" x1="404.302" y1="265.571" x2="471.393" y2="131.763" gradientUnits="userSpaceOnUse">
<stop stop-color="#5778FF"/>
<stop offset="0.1042" stop-color="#567FFF"/>
<stop offset="0.2607" stop-color="#5394FF"/>
<stop offset="0.4503" stop-color="#4DB6FF"/>
<stop offset="0.6638" stop-color="#46E4FF"/>
<stop offset="0.7742" stop-color="#42FFFF"/>
</linearGradient>
<linearGradient id="paint17_linear_488_10853" x1="98084.4" y1="-13809.5" x2="113142" y2="14340.9" gradientUnits="userSpaceOnUse">
<stop stop-color="#35068C"/>
<stop offset="0.02" stop-color="#40DDDA"/>
<stop offset="0.09" stop-color="#3AAEC0"/>
<stop offset="0.17" stop-color="#3484A9"/>
<stop offset="0.26" stop-color="#2F6195"/>
<stop offset="0.35" stop-color="#2B4486"/>
<stop offset="0.44" stop-color="#282E79"/>
<stop offset="0.54" stop-color="#261E71"/>
<stop offset="0.66" stop-color="#24156C"/>
<stop offset="0.82" stop-color="#24126A"/>
</linearGradient>
<linearGradient id="paint18_linear_488_10853" x1="107.181" y1="309.202" x2="412.523" y2="309.202" gradientUnits="userSpaceOnUse">
<stop stop-color="#3671E9"/>
<stop offset="0.15" stop-color="#91A2FA"/>
<stop offset="0.33" stop-color="#8B97F1"/>
<stop offset="0.52" stop-color="#7366C8"/>
<stop offset="0.72" stop-color="#654CB3"/>
<stop offset="0.93" stop-color="#4127A7"/>
<stop offset="1" stop-color="#260672"/>
</linearGradient>
<linearGradient id="paint19_linear_488_10853" x1="21756.2" y1="38461.9" x2="83264.8" y2="38461.9" gradientUnits="userSpaceOnUse">
<stop stop-color="#42E8E0"/>
<stop offset="0.15" stop-color="#43E3E0"/>
<stop offset="0.33" stop-color="#45D5DF"/>
<stop offset="0.52" stop-color="#49BDDD"/>
<stop offset="0.72" stop-color="#4E9CDB"/>
<stop offset="0.93" stop-color="#5472D8"/>
<stop offset="1" stop-color="#5761D7"/>
</linearGradient>
<linearGradient id="paint20_linear_488_10853" x1="100769" y1="-18962.4" x2="115827" y2="9188.25" gradientUnits="userSpaceOnUse">
<stop stop-color="#654CB2"/>
<stop offset="0.02" stop-color="#40DDDA"/>
<stop offset="0.09" stop-color="#3AAEC0"/>
<stop offset="0.17" stop-color="#3484A9"/>
<stop offset="0.26" stop-color="#2F6195"/>
<stop offset="0.35" stop-color="#2B4486"/>
<stop offset="0.44" stop-color="#282E79"/>
<stop offset="0.54" stop-color="#261E71"/>
<stop offset="0.66" stop-color="#24156C"/>
<stop offset="0.82" stop-color="#24126A"/>
</linearGradient>
<linearGradient id="paint21_linear_488_10853" x1="260.584" y1="180.936" x2="318.777" y2="515.495" gradientUnits="userSpaceOnUse">
<stop stop-color="#42E8E0"/>
<stop offset="0.02" stop-color="#40DDDA"/>
<stop offset="0.09" stop-color="#3AAEC0"/>
<stop offset="0.17" stop-color="#3484A9"/>
<stop offset="0.26" stop-color="#2F6195"/>
<stop offset="0.35" stop-color="#2B4486"/>
<stop offset="0.44" stop-color="#282E79"/>
<stop offset="0.54" stop-color="#261E71"/>
<stop offset="0.66" stop-color="#24156C"/>
<stop offset="0.82" stop-color="#24126A"/>
</linearGradient>
<linearGradient id="paint22_linear_488_10853" x1="148.112" y1="252.383" x2="421.213" y2="252.383" gradientUnits="userSpaceOnUse">
<stop stop-color="#2B237C"/>
<stop offset="1" stop-color="#180D5B"/>
</linearGradient>
<linearGradient id="paint23_linear_488_10853" x1="1051.36" y1="1863.07" x2="1054.4" y2="1914.03" gradientUnits="userSpaceOnUse">
<stop stop-color="#2B237D"/>
<stop offset="0.02" stop-color="#40DDDA"/>
<stop offset="0.09" stop-color="#3AAEC0"/>
<stop offset="0.17" stop-color="#3484A9"/>
<stop offset="0.26" stop-color="#2F6195"/>
<stop offset="0.35" stop-color="#2B4486"/>
<stop offset="0.44" stop-color="#282E79"/>
<stop offset="0.54" stop-color="#261E71"/>
<stop offset="0.66" stop-color="#24156C"/>
<stop offset="0.82" stop-color="#24126A"/>
</linearGradient>
<linearGradient id="paint24_linear_488_10853" x1="1177.59" y1="1796.33" x2="1180.54" y2="1847.29" gradientUnits="userSpaceOnUse">
<stop stop-color="#2C247E"/>
<stop offset="0.02" stop-color="#40DDDA"/>
<stop offset="0.09" stop-color="#3AAEC0"/>
<stop offset="0.17" stop-color="#3484A9"/>
<stop offset="0.26" stop-color="#2F6195"/>
<stop offset="0.35" stop-color="#2B4486"/>
<stop offset="0.44" stop-color="#282E79"/>
<stop offset="0.54" stop-color="#261E71"/>
<stop offset="0.66" stop-color="#24156C"/>
<stop offset="0.82" stop-color="#24126A"/>
</linearGradient>
<linearGradient id="paint25_linear_488_10853" x1="1472.7" y1="2191.99" x2="1478.32" y2="2263.91" gradientUnits="userSpaceOnUse">
<stop stop-color="#2B237C"/>
<stop offset="1" stop-color="#180D5B"/>
</linearGradient>
<linearGradient id="paint26_linear_488_10853" x1="-6179.33" y1="11188.5" x2="-2602.37" y2="17384" gradientUnits="userSpaceOnUse">
<stop stop-color="#2B237C"/>
<stop offset="1" stop-color="#180D5B"/>
</linearGradient>
<linearGradient id="paint27_linear_488_10853" x1="-6247.86" y1="11160.2" x2="-2670.89" y2="17355.7" gradientUnits="userSpaceOnUse">
<stop stop-color="#2B237C"/>
<stop offset="1" stop-color="#180D5B"/>
</linearGradient>
<linearGradient id="paint28_linear_488_10853" x1="-987.319" y1="15753.6" x2="8012.76" y2="53324.7" gradientUnits="userSpaceOnUse">
<stop stop-color="#654DB3"/>
<stop offset="0.0899" stop-color="#40DDDA"/>
<stop offset="0.09" stop-color="#E9E9FE"/>
<stop offset="0.17" stop-color="#654DB3"/>
<stop offset="0.26" stop-color="#2F6195"/>
<stop offset="0.35" stop-color="#2B4486"/>
<stop offset="0.44" stop-color="#282E79"/>
<stop offset="0.54" stop-color="#261E71"/>
<stop offset="0.66" stop-color="#24156C"/>
<stop offset="0.82" stop-color="#24126A"/>
</linearGradient>
<clipPath id="clip0_488_10853">
<rect width="135.983" height="67.9915" fill="white" transform="matrix(0.866025 0.5 -0.866025 0.5 260.882 241)"/>
</clipPath>
</defs>
</svg>
