<svg width="944" height="562" viewBox="0 0 944 562" fill="none" xmlns="http://www.w3.org/2000/svg">
<g opacity="0.7" clip-path="url(#clip0_1005_8110)">
<mask id="mask0_1005_8110" style="mask-type:alpha" maskUnits="userSpaceOnUse" x="-9" y="50" width="999" height="512">
<path d="M-8.04199 50H989.158V562H-8.04199V50Z" fill="white"/>
</mask>
<g mask="url(#mask0_1005_8110)">
<path opacity="0.043478" d="M-230.039 559.471H70.6321C131.54 559.471 186.432 523.648 209.643 468.75L254.163 363.458C275.346 313.358 323.152 278.739 378.47 273.439L450.718 266.518C504.013 261.412 545.181 218.607 546.985 166.429C548.237 130.143 568.267 95.9756 602.393 81.4362C637.947 66.2869 667.745 60.0916 709.824 56.937" stroke="#AB21EC" stroke-width="5" stroke-linecap="round" stroke-dasharray="0.05 20"/>
<path opacity="0.086957" d="M-224.669 559.471H76.002C136.91 559.471 191.802 523.648 215.013 468.75L259.533 363.458C280.716 313.358 328.522 278.739 383.84 273.439L456.088 266.518C509.383 261.412 550.551 218.607 552.355 166.429C553.607 130.143 573.637 95.9756 607.763 81.4362C643.317 66.2869 673.115 60.0916 715.194 56.937" stroke="#AB21EC" stroke-width="5" stroke-linecap="round" stroke-dasharray="0.05 20"/>
<path opacity="0.130435" d="M-219.299 559.471H81.3719C142.28 559.471 197.172 523.648 220.383 468.75L264.903 363.458C286.086 313.358 333.892 278.739 389.21 273.439L461.458 266.518C514.753 261.412 555.921 218.607 557.725 166.429C558.976 130.143 579.006 95.9756 613.132 81.4362C648.687 66.2869 678.485 60.0916 720.564 56.937" stroke="#AB21EC" stroke-width="5" stroke-linecap="round" stroke-dasharray="0.05 20"/>
<path opacity="0.173913" d="M-213.929 559.471H86.7419C147.65 559.471 202.542 523.648 225.753 468.75L270.273 363.458C291.456 313.358 339.262 278.739 394.58 273.439L466.828 266.518C520.123 261.412 561.291 218.607 563.095 166.429C564.346 130.143 584.376 95.9756 618.502 81.4362C654.057 66.2869 683.855 60.0916 725.934 56.937" stroke="#AB21EC" stroke-width="5" stroke-linecap="round" stroke-dasharray="0.05 20"/>
<path opacity="0.217391" d="M-208.559 559.471H92.1119C153.02 559.471 207.912 523.648 231.123 468.75L275.643 363.458C296.826 313.358 344.632 278.739 399.95 273.439L472.198 266.518C525.493 261.412 566.661 218.607 568.465 166.429C569.716 130.143 589.746 95.9756 623.872 81.4362C659.427 66.2869 689.225 60.0916 731.304 56.937" stroke="#AB21EC" stroke-width="5" stroke-linecap="round" stroke-dasharray="0.05 20"/>
<path opacity="0.26087" d="M-203.189 559.471H97.4818C158.39 559.471 213.282 523.648 236.493 468.75L281.013 363.458C302.196 313.358 350.002 278.739 405.32 273.439L477.568 266.518C530.865 261.412 572.031 218.607 573.835 166.429C575.086 130.143 595.116 95.9756 629.242 81.4362C664.797 66.2869 694.595 60.0916 736.674 56.937" stroke="#AB21EC" stroke-width="5" stroke-linecap="round" stroke-dasharray="0.05 20"/>
<path opacity="0.304348" d="M-197.819 559.471H102.852C163.76 559.471 218.652 523.648 241.863 468.75L286.383 363.458C307.566 313.358 355.372 278.739 410.69 273.439L482.938 266.518C536.235 261.412 577.401 218.607 579.205 166.429C580.456 130.143 600.486 95.9756 634.612 81.4362C670.167 66.2869 699.965 60.0916 742.044 56.937" stroke="#AB21EC" stroke-width="5" stroke-linecap="round" stroke-dasharray="0.05 20"/>
<path opacity="0.347826" d="M-192.449 559.471H108.222C169.13 559.471 224.022 523.648 247.233 468.75L291.753 363.458C312.936 313.358 360.742 278.739 416.06 273.439L488.308 266.518C541.605 261.412 582.771 218.607 584.575 166.429C585.826 130.143 605.856 95.9756 639.982 81.4362C675.537 66.2869 705.335 60.0916 747.414 56.937" stroke="#AB21EC" stroke-width="5" stroke-linecap="round" stroke-dasharray="0.05 20"/>
<path opacity="0.391304" d="M-187.079 559.471H113.592C174.5 559.471 229.391 523.648 252.603 468.75L297.123 363.458C318.305 313.358 366.112 278.739 421.43 273.439L493.677 266.518C546.975 261.412 588.141 218.607 589.945 166.429C591.196 130.143 611.226 95.9756 645.352 81.4362C680.907 66.2869 710.704 60.0916 752.783 56.937" stroke="#AB21EC" stroke-width="5" stroke-linecap="round" stroke-dasharray="0.05 20"/>
<path opacity="0.434783" d="M-181.709 559.471H118.962C179.87 559.471 234.761 523.648 257.973 468.75L302.493 363.458C323.675 313.358 371.482 278.739 426.8 273.439L499.047 266.518C552.345 261.412 593.511 218.607 595.315 166.429C596.566 130.143 616.596 95.9756 650.722 81.4362C686.277 66.2869 716.074 60.0916 758.153 56.937" stroke="#AB21EC" stroke-width="5" stroke-linecap="round" stroke-dasharray="0.05 20"/>
<path opacity="0.478261" d="M-176.34 559.471H124.332C185.24 559.471 240.131 523.648 263.343 468.75L307.862 363.458C329.045 313.358 376.852 278.739 432.17 273.439L504.417 266.518C557.715 261.412 598.881 218.607 600.685 166.429C601.936 130.143 621.966 95.9756 656.092 81.4362C691.647 66.2869 721.444 60.0916 763.523 56.937" stroke="#AB21EC" stroke-width="5" stroke-linecap="round" stroke-dasharray="0.05 20"/>
<path opacity="0.521739" d="M-170.97 559.471H129.702C190.61 559.471 245.501 523.648 268.713 468.75L313.232 363.458C334.415 313.358 382.222 278.739 437.54 273.439L509.787 266.518C563.085 261.412 604.251 218.607 606.055 166.429C607.306 130.143 627.336 95.9756 661.462 81.4362C697.017 66.2869 726.814 60.0916 768.893 56.937" stroke="#AB21EC" stroke-width="5" stroke-linecap="round" stroke-dasharray="0.05 20"/>
<path opacity="0.565217" d="M-165.6 559.471H135.072C195.98 559.471 250.871 523.648 274.083 468.75L318.602 363.458C339.785 313.358 387.592 278.739 442.91 273.439L515.157 266.518C568.455 261.412 609.621 218.607 611.425 166.429C612.676 130.143 632.706 95.9756 666.832 81.4362C702.387 66.2869 732.184 60.0916 774.263 56.937" stroke="#AB21EC" stroke-width="5" stroke-linecap="round" stroke-dasharray="0.05 20"/>
<path opacity="0.608696" d="M-160.23 559.471H140.441C201.35 559.471 256.241 523.648 279.453 468.75L323.972 363.458C345.155 313.358 392.962 278.739 448.28 273.439L520.527 266.518C573.824 261.412 614.99 218.607 616.795 166.429C618.046 130.143 638.076 95.9756 672.202 81.4362C707.756 66.2869 737.554 60.0916 779.633 56.937" stroke="#AB21EC" stroke-width="5" stroke-linecap="round" stroke-dasharray="0.05 20"/>
<path opacity="0.652174" d="M-154.86 559.471H145.811C206.72 559.471 261.611 523.648 284.823 468.75L329.342 363.458C350.525 313.358 398.332 278.739 453.65 273.439L525.897 266.518C579.194 261.412 620.36 218.607 622.165 166.429C623.416 130.143 643.446 95.9756 677.572 81.4362C713.126 66.2869 742.924 60.0916 785.003 56.937" stroke="#AB21EC" stroke-width="5" stroke-linecap="round" stroke-dasharray="0.05 20"/>
<path opacity="0.695652" d="M-149.49 559.471H151.181C212.09 559.471 266.981 523.648 290.193 468.75L334.712 363.458C355.895 313.358 403.702 278.739 459.02 273.439L531.268 266.518C584.564 261.412 625.73 218.607 627.535 166.429C628.786 130.143 648.816 95.9756 682.942 81.4362C718.496 66.2869 748.294 60.0916 790.373 56.937" stroke="#AB21EC" stroke-width="5" stroke-linecap="round" stroke-dasharray="0.05 20"/>
<path opacity="0.73913" d="M-144.12 559.471H156.551C217.459 559.471 272.351 523.648 295.563 468.75L340.082 363.458C361.265 313.358 409.072 278.739 464.39 273.439L536.638 266.518C589.934 261.412 631.1 218.607 632.905 166.429C634.156 130.143 654.186 95.9756 688.312 81.4362C723.866 66.2869 753.664 60.0916 795.743 56.937" stroke="#AB21EC" stroke-width="5" stroke-linecap="round" stroke-dasharray="0.05 20"/>
<path opacity="0.782609" d="M-138.75 559.471H161.921C222.829 559.471 277.721 523.648 300.933 468.75L345.452 363.458C366.635 313.358 414.442 278.739 469.76 273.439L542.008 266.518C595.304 261.412 636.47 218.607 638.275 166.429C639.526 130.143 659.556 95.9756 693.682 81.4362C729.236 66.2869 759.034 60.0916 801.113 56.937" stroke="#AB21EC" stroke-width="5" stroke-linecap="round" stroke-dasharray="0.05 20"/>
<path opacity="0.826087" d="M-133.38 559.471H167.291C228.199 559.471 283.091 523.648 306.303 468.75L350.822 363.458C372.005 313.358 419.812 278.739 475.13 273.439L547.378 266.518C600.674 261.412 641.84 218.607 643.645 166.429C644.896 130.143 664.926 95.9756 699.052 81.4362C734.606 66.2869 764.404 60.0916 806.483 56.937" stroke="#AB21EC" stroke-width="5" stroke-linecap="round" stroke-dasharray="0.05 20"/>
<path opacity="0.869565" d="M-128.01 559.471H172.661C233.569 559.471 288.461 523.648 311.673 468.75L356.192 363.458C377.375 313.358 425.182 278.739 480.5 273.439L552.747 266.518C606.044 261.412 647.21 218.607 649.014 166.429C650.266 130.143 670.296 95.9756 704.422 81.4362C739.976 66.2869 769.774 60.0916 811.853 56.937" stroke="#AB21EC" stroke-width="5" stroke-linecap="round" stroke-dasharray="0.05 20"/>
<path opacity="0.913043" d="M-122.64 559.471H178.031C238.939 559.471 293.831 523.648 317.043 468.75L361.562 363.458C382.745 313.358 430.551 278.739 485.87 273.439L558.117 266.518C611.414 261.412 652.58 218.607 654.384 166.429C655.636 130.143 675.666 95.9756 709.792 81.4362C745.346 66.2869 775.144 60.0916 817.223 56.937" stroke="#AB21EC" stroke-width="5" stroke-linecap="round" stroke-dasharray="0.05 20"/>
<path opacity="0.956522" d="M-117.27 559.471H183.401C244.309 559.471 299.201 523.648 322.413 468.75L366.932 363.458C388.115 313.358 435.921 278.739 491.24 273.439L563.487 266.518C616.784 261.412 657.95 218.607 659.754 166.429C661.006 130.143 681.036 95.9756 715.162 81.4362C750.716 66.2869 780.514 60.0916 822.593 56.937" stroke="#AB21EC" stroke-width="5" stroke-linecap="round" stroke-dasharray="0.05 20"/>
<path d="M-111.9 559.471H188.771C249.679 559.471 304.57 523.648 327.782 468.75L372.302 363.458C393.485 313.358 441.291 278.739 496.609 273.439L568.857 266.518C622.154 261.412 663.32 218.607 665.124 166.429C666.376 130.143 686.405 95.9757 720.532 81.4362C756.086 66.2869 785.884 60.0916 827.963 56.937" stroke="#AB21EC" stroke-width="5" stroke-linecap="round" stroke-dasharray="0.05 20"/>
<path d="M-284.239 559.541H188.424C249.255 559.541 304.092 523.808 327.355 469.011L372.24 363.28C393.466 313.278 441.224 278.745 496.466 273.453L568.857 266.518C622.154 261.412 663.326 218.607 665.125 166.429C666.376 130.143 686.406 95.9756 720.532 81.4361C756.092 66.287 785.884 60.0919 827.963 56.9373" stroke="url(#paint0_linear_1005_8110)" stroke-width="6" stroke-linecap="round"/>
</g>
</g>
<g opacity="0.7" clip-path="url(#clip1_1005_8110)">
<mask id="mask1_1005_8110" style="mask-type:alpha" maskUnits="userSpaceOnUse" x="5" y="0" width="939" height="566">
<path d="M5 0H944V565.071H5V0Z" fill="white"/>
</mask>
<g mask="url(#mask1_1005_8110)">
<path opacity="0.043478" d="M23.5038 562.255H324.024C372.245 562.255 417.151 534.211 443.19 487.835L474.935 431.296C500.975 384.92 545.878 356.876 594.102 356.876H643.297C711.884 356.876 763.724 285.903 751.457 208.8C739.19 131.696 791.029 60.7227 859.616 60.7227H940.471" stroke="#2D68FF" stroke-width="5" stroke-linecap="round" stroke-dasharray="0.05 20"/>
<path opacity="0.086957" d="M18.4473 562.255H318.967C367.189 562.255 412.095 534.211 438.134 487.835L469.879 431.296C495.918 384.92 540.822 356.876 589.046 356.876H638.241C706.828 356.876 758.668 285.903 746.4 208.8C734.133 131.696 785.973 60.7227 854.56 60.7227H935.414" stroke="#2D68FF" stroke-width="5" stroke-linecap="round" stroke-dasharray="0.05 20"/>
<path opacity="0.130435" d="M13.3907 562.255H313.911C362.132 562.255 407.038 534.211 433.077 487.835L464.822 431.296C490.862 384.92 535.765 356.876 583.989 356.876H633.184C701.771 356.876 753.611 285.903 741.344 208.8C729.077 131.696 780.916 60.7227 849.503 60.7227H930.357" stroke="#2D68FF" stroke-width="5" stroke-linecap="round" stroke-dasharray="0.05 20"/>
<path opacity="0.173913" d="M8.33411 562.255H308.854C357.075 562.255 401.982 534.211 428.021 487.835L459.766 431.296C485.805 384.92 530.709 356.876 578.933 356.876H628.128C696.715 356.876 748.554 285.903 736.287 208.8C724.02 131.696 775.86 60.7227 844.447 60.7227H925.301" stroke="#2D68FF" stroke-width="5" stroke-linecap="round" stroke-dasharray="0.05 20"/>
<path opacity="0.217391" d="M3.27759 562.255H303.798C352.019 562.255 396.925 534.211 422.964 487.835L454.709 431.296C480.748 384.92 525.652 356.876 573.876 356.876H623.071C691.658 356.876 743.498 285.903 731.231 208.8C718.964 131.696 770.803 60.7227 839.39 60.7227H920.244" stroke="#2D68FF" stroke-width="5" stroke-linecap="round" stroke-dasharray="0.05 20"/>
<path opacity="0.26087" d="M-1.77893 562.255H298.741C346.962 562.255 391.869 534.211 417.908 487.835L449.653 431.296C475.692 384.92 520.595 356.876 568.82 356.876H618.015C686.602 356.876 738.441 285.903 726.174 208.8C713.907 131.696 765.747 60.7227 834.334 60.7227H915.188" stroke="#2D68FF" stroke-width="5" stroke-linecap="round" stroke-dasharray="0.05 20"/>
<path opacity="0.304348" d="M-6.83545 562.255H293.685C341.906 562.255 386.812 534.211 412.851 487.835L444.596 431.296C470.635 384.92 515.539 356.876 563.763 356.876H612.958C681.545 356.876 733.385 285.903 721.118 208.8C708.851 131.696 760.69 60.7227 829.277 60.7227H910.131" stroke="#2D68FF" stroke-width="5" stroke-linecap="round" stroke-dasharray="0.05 20"/>
<path opacity="0.347826" d="M-11.892 562.255H288.628C336.849 562.255 381.755 534.211 407.795 487.835L439.54 431.296C465.579 384.92 510.485 356.876 558.707 356.876H607.902C676.489 356.876 728.328 285.903 716.061 208.8C703.794 131.696 755.634 60.7227 824.221 60.7227H905.075" stroke="#2D68FF" stroke-width="5" stroke-linecap="round" stroke-dasharray="0.05 20"/>
<path opacity="0.391304" d="M-16.9485 562.255H283.572C331.793 562.255 376.699 534.211 402.738 487.835L434.483 431.296C460.522 384.92 505.428 356.876 553.65 356.876H602.845C671.432 356.876 723.272 285.903 711.005 208.8C698.737 131.696 750.577 60.7227 819.164 60.7227H900.018" stroke="#2D68FF" stroke-width="5" stroke-linecap="round" stroke-dasharray="0.05 20"/>
<path opacity="0.434783" d="M-22.0051 562.255H278.515C326.736 562.255 371.642 534.211 397.682 487.835L429.426 431.296C455.466 384.92 500.372 356.876 548.594 356.876H597.789C666.376 356.876 718.215 285.903 705.948 208.8C693.681 131.696 745.521 60.7227 814.107 60.7227H894.962" stroke="#2D68FF" stroke-width="5" stroke-linecap="round" stroke-dasharray="0.05 20"/>
<path opacity="0.478261" d="M-27.0616 562.255H273.458C321.68 562.255 366.586 534.211 392.625 487.835L424.37 431.296C450.409 384.92 495.315 356.876 543.537 356.876H592.732C661.319 356.876 713.159 285.903 700.892 208.8C688.624 131.696 740.464 60.7227 809.051 60.7227H889.905" stroke="#2D68FF" stroke-width="5" stroke-linecap="round" stroke-dasharray="0.05 20"/>
<path opacity="0.521739" d="M-32.1182 562.255H268.402C316.623 562.255 361.529 534.211 387.568 487.835L419.313 431.296C445.353 384.92 490.259 356.876 538.48 356.876H587.676C656.262 356.876 708.102 285.903 695.835 208.8C683.568 131.696 735.408 60.7227 803.994 60.7227H884.849" stroke="#2D68FF" stroke-width="5" stroke-linecap="round" stroke-dasharray="0.05 20"/>
<path opacity="0.565217" d="M-37.1747 562.255H263.345C311.567 562.255 356.473 534.211 382.512 487.835L414.257 431.296C440.296 384.92 485.202 356.876 533.424 356.876H582.619C651.206 356.876 703.046 285.903 690.778 208.8C678.511 131.696 730.351 60.7227 798.938 60.7227H879.792" stroke="#2D68FF" stroke-width="5" stroke-linecap="round" stroke-dasharray="0.05 20"/>
<path opacity="0.608696" d="M-42.2312 562.255H258.289C306.51 562.255 351.416 534.211 377.455 487.835L409.2 431.296C435.24 384.92 480.146 356.876 528.367 356.876H577.562C646.149 356.876 697.989 285.903 685.722 208.8C673.455 131.696 725.294 60.7227 793.881 60.7227H874.736" stroke="#2D68FF" stroke-width="5" stroke-linecap="round" stroke-dasharray="0.05 20"/>
<path opacity="0.652174" d="M-47.2876 562.255H253.232C301.454 562.255 346.36 534.211 372.399 487.835L404.144 431.296C430.183 384.92 475.089 356.876 523.311 356.876H572.506C641.093 356.876 692.933 285.903 680.665 208.8C668.398 131.696 720.238 60.7227 788.825 60.7227H869.679" stroke="#2D68FF" stroke-width="5" stroke-linecap="round" stroke-dasharray="0.05 20"/>
<path opacity="0.695652" d="M-52.3442 562.255H248.176C296.397 562.255 341.303 534.211 367.342 487.835L399.087 431.296C425.126 384.92 470.032 356.876 518.254 356.876H567.449C636.036 356.876 687.876 285.903 675.609 208.8C663.342 131.696 715.181 60.7227 783.768 60.7227H864.622" stroke="#2D68FF" stroke-width="5" stroke-linecap="round" stroke-dasharray="0.05 20"/>
<path opacity="0.73913" d="M-57.4008 562.255H243.119C291.34 562.255 336.246 534.211 362.286 487.835L394.031 431.296C420.07 384.92 464.976 356.876 513.198 356.876H562.393C630.98 356.876 682.819 285.903 670.552 208.8C658.285 131.696 710.125 60.7227 778.712 60.7227H859.566" stroke="#2D68FF" stroke-width="5" stroke-linecap="round" stroke-dasharray="0.05 20"/>
<path opacity="0.782609" d="M-62.4573 562.255H238.063C286.284 562.255 331.19 534.211 357.229 487.835L388.974 431.296C415.013 384.92 459.919 356.876 508.141 356.876H557.336C625.923 356.876 677.763 285.903 665.496 208.8C653.228 131.696 705.068 60.7227 773.655 60.7227H854.509" stroke="#2D68FF" stroke-width="5" stroke-linecap="round" stroke-dasharray="0.05 20"/>
<path opacity="0.826087" d="M-67.5138 562.255H233.006C281.227 562.255 326.133 534.211 352.173 487.835L383.918 431.296C409.957 384.92 454.863 356.876 503.084 356.876H552.28C620.867 356.876 672.706 285.903 660.439 208.8C648.172 131.696 700.012 60.7227 768.599 60.7227H849.453" stroke="#2D68FF" stroke-width="5" stroke-linecap="round" stroke-dasharray="0.05 20"/>
<path opacity="0.869565" d="M-72.5703 562.255H227.95C276.171 562.255 321.077 534.211 347.116 487.835L378.861 431.296C404.9 384.92 449.806 356.876 498.028 356.876H547.223C615.81 356.876 667.65 285.903 655.383 208.8C643.115 131.696 694.955 60.7227 763.542 60.7227H844.396" stroke="#2D68FF" stroke-width="5" stroke-linecap="round" stroke-dasharray="0.05 20"/>
<path opacity="0.913043" d="M-77.627 562.255H222.893C271.114 562.255 316.02 534.211 342.059 487.835L373.804 431.296C399.844 384.92 444.75 356.876 492.971 356.876H542.167C610.753 356.876 662.593 285.903 650.326 208.8C638.059 131.696 689.899 60.7227 758.485 60.7227H839.34" stroke="#2D68FF" stroke-width="5" stroke-linecap="round" stroke-dasharray="0.05 20"/>
<path opacity="0.956522" d="M-82.6835 562.255H217.836C266.058 562.255 310.964 534.211 337.003 487.835L368.748 431.296C394.787 384.92 439.693 356.876 487.914 356.876H537.11C605.697 356.876 657.537 285.903 645.269 208.8C633.002 131.696 684.842 60.7227 753.429 60.7227H834.283" stroke="#2D68FF" stroke-width="5" stroke-linecap="round" stroke-dasharray="0.05 20"/>
<path d="M-87.74 562.255H212.78C261.001 562.255 305.907 534.211 331.946 487.835L363.691 431.296C389.731 384.92 434.637 356.876 482.858 356.876H532.054C600.64 356.876 652.48 285.903 640.213 208.8C627.946 131.696 679.785 60.7227 748.372 60.7227H829.227" stroke="#2D68FF" stroke-width="5" stroke-linecap="round" stroke-dasharray="0.05 20"/>
</g>
</g>
<g opacity="0.7" clip-path="url(#clip2_1005_8110)">
<mask id="mask2_1005_8110" style="mask-type:alpha" maskUnits="userSpaceOnUse" x="-215" y="-246" width="1574" height="824">
<path d="M-214.944 -245.843H1358.05V577.953H-214.944V-245.843Z" fill="white"/>
</mask>
<g mask="url(#mask2_1005_8110)">
<path opacity="0.043478" d="M-470.257 574.407H332.809C412.553 574.407 478.866 540.386 510.905 483.036L541.793 427.745C571.611 374.372 631.262 340.991 704.282 336.816L862.259 327.784C911.762 324.954 946.661 294.179 949.083 251.225C950.938 218.207 971.886 191.254 1006.41 181.335C1063.1 165.054 1106.18 158.918 1170.24 155.971" stroke="#00D2FF" stroke-width="5" stroke-linecap="round" stroke-dasharray="0.05 20"/>
<path opacity="0.086957" d="M-461.786 574.407H341.28C421.024 574.407 487.337 540.386 519.376 483.036L550.264 427.745C580.082 374.372 639.735 340.991 712.752 336.816L870.73 327.784C920.232 324.954 955.131 294.179 957.554 251.225C959.409 218.207 980.357 191.254 1014.88 181.335C1071.57 165.054 1114.65 158.918 1178.71 155.971" stroke="#00D2FF" stroke-width="5" stroke-linecap="round" stroke-dasharray="0.05 20"/>
<path opacity="0.130435" d="M-453.315 574.407H349.75C429.495 574.407 495.807 540.386 527.847 483.036L558.735 427.745C588.552 374.372 648.206 340.991 721.223 336.816L879.2 327.784C928.703 324.954 963.602 294.179 966.025 251.225C967.88 218.207 988.828 191.254 1023.35 181.335C1080.04 165.054 1123.12 158.918 1187.18 155.971" stroke="#00D2FF" stroke-width="5" stroke-linecap="round" stroke-dasharray="0.05 20"/>
<path opacity="0.173913" d="M-444.845 574.407H358.221C437.965 574.407 504.278 540.386 536.317 483.036L567.205 427.745C597.023 374.372 656.677 340.991 729.694 336.816L887.671 327.784C937.174 324.954 972.073 294.179 974.495 251.225C976.35 218.207 997.298 191.254 1031.82 181.335C1088.51 165.054 1131.59 158.918 1195.66 155.971" stroke="#00D2FF" stroke-width="5" stroke-linecap="round" stroke-dasharray="0.05 20"/>
<path opacity="0.217391" d="M-436.374 574.407H366.692C446.436 574.407 512.748 540.386 544.788 483.036L575.676 427.745C605.494 374.372 665.147 340.991 738.164 336.816L896.142 327.784C945.644 324.954 980.543 294.179 982.966 251.225C984.821 218.207 1005.77 191.254 1040.3 181.335C1096.98 165.054 1140.06 158.918 1204.13 155.971" stroke="#00D2FF" stroke-width="5" stroke-linecap="round" stroke-dasharray="0.05 20"/>
<path opacity="0.26087" d="M-427.903 574.407H375.162C454.907 574.407 521.219 540.386 553.259 483.036L584.147 427.745C613.964 374.372 673.618 340.991 746.635 336.816L904.612 327.784C954.115 324.954 989.014 294.179 991.437 251.225C993.292 218.207 1014.24 191.254 1048.77 181.335C1105.45 165.054 1148.53 158.918 1212.6 155.971" stroke="#00D2FF" stroke-width="5" stroke-linecap="round" stroke-dasharray="0.05 20"/>
<path opacity="0.304348" d="M-419.433 574.407H383.633C463.377 574.407 529.69 540.386 561.729 483.036L592.617 427.745C622.435 374.372 682.088 340.991 755.105 336.816L913.083 327.784C962.585 324.954 997.485 294.179 999.907 251.225C1001.76 218.207 1022.71 191.254 1057.24 181.335C1113.92 165.054 1157 158.918 1221.07 155.971" stroke="#00D2FF" stroke-width="5" stroke-linecap="round" stroke-dasharray="0.05 20"/>
<path opacity="0.347826" d="M-410.962 574.407H392.104C471.848 574.407 538.16 540.386 570.2 483.036L601.088 427.745C630.906 374.372 690.559 340.991 763.576 336.816L921.554 327.784C971.056 324.954 1005.96 294.179 1008.38 251.225C1010.23 218.207 1031.18 191.254 1065.71 181.335C1122.39 165.054 1165.47 158.918 1229.54 155.971" stroke="#00D2FF" stroke-width="5" stroke-linecap="round" stroke-dasharray="0.05 20"/>
<path opacity="0.391304" d="M-402.491 574.407H400.574C480.319 574.407 546.631 540.386 578.67 483.036L609.559 427.745C639.379 374.372 699.03 340.991 772.047 336.816L930.024 327.784C979.527 324.954 1014.43 294.179 1016.85 251.225C1018.7 218.207 1039.65 191.254 1074.18 181.335C1130.86 165.054 1173.95 158.918 1238.01 155.971" stroke="#00D2FF" stroke-width="5" stroke-linecap="round" stroke-dasharray="0.05 20"/>
<path opacity="0.434783" d="M-394.021 574.407H409.045C488.789 574.407 555.102 540.386 587.141 483.036L618.029 427.745C647.85 374.372 707.5 340.991 780.517 336.816L938.495 327.784C987.997 324.954 1022.9 294.179 1025.32 251.225C1027.17 218.207 1048.12 191.254 1082.65 181.335C1139.33 165.054 1182.42 158.918 1246.48 155.971" stroke="#00D2FF" stroke-width="5" stroke-linecap="round" stroke-dasharray="0.05 20"/>
<path opacity="0.478261" d="M-385.55 574.407H417.515C497.26 574.407 563.572 540.386 595.612 483.036L626.5 427.745C656.321 374.372 715.971 340.991 788.988 336.816L946.966 327.784C996.468 324.954 1031.37 294.179 1033.79 251.225C1035.64 218.207 1056.59 191.254 1091.12 181.335C1147.8 165.054 1190.89 158.918 1254.95 155.971" stroke="#00D2FF" stroke-width="5" stroke-linecap="round" stroke-dasharray="0.05 20"/>
<path opacity="0.521739" d="M-377.079 574.407H425.986C505.731 574.407 572.043 540.386 604.082 483.036L634.975 427.745C664.791 374.372 724.442 340.991 797.459 336.816L955.436 327.784C1004.94 324.954 1039.84 294.179 1042.26 251.225C1044.12 218.207 1065.06 191.254 1099.59 181.335C1156.28 165.054 1199.36 158.918 1263.42 155.971" stroke="#00D2FF" stroke-width="5" stroke-linecap="round" stroke-dasharray="0.05 20"/>
<path opacity="0.565217" d="M-368.609 574.407H434.457C514.201 574.407 580.514 540.386 612.553 483.036L643.445 427.745C673.262 374.372 732.912 340.991 805.929 336.816L963.907 327.784C1013.41 324.954 1048.31 294.179 1050.73 251.225C1052.59 218.207 1073.53 191.254 1108.06 181.335C1164.75 165.054 1207.83 158.918 1271.89 155.971" stroke="#00D2FF" stroke-width="5" stroke-linecap="round" stroke-dasharray="0.05 20"/>
<path opacity="0.608696" d="M-360.138 574.407H442.927C522.672 574.407 588.984 540.386 621.024 483.036L651.916 427.745C681.733 374.372 741.383 340.991 814.4 336.816L972.378 327.784C1021.88 324.954 1056.78 294.179 1059.2 251.225C1061.06 218.207 1082 191.254 1116.53 181.335C1173.22 165.054 1216.3 158.918 1280.36 155.971" stroke="#00D2FF" stroke-width="5" stroke-linecap="round" stroke-dasharray="0.05 20"/>
<path opacity="0.652174" d="M-351.667 574.407H451.398C531.143 574.407 597.455 540.386 629.494 483.036L660.387 427.745C690.203 374.372 749.854 340.991 822.871 336.816L980.848 327.784C1030.35 324.954 1065.25 294.179 1067.67 251.225C1069.53 218.207 1090.48 191.254 1125 181.335C1181.69 165.054 1224.77 158.918 1288.83 155.971" stroke="#00D2FF" stroke-width="5" stroke-linecap="round" stroke-dasharray="0.05 20"/>
<path opacity="0.695652" d="M-343.197 574.407H459.869C539.613 574.407 605.926 540.386 637.965 483.036L668.857 427.745C698.674 374.372 758.324 340.991 831.341 336.816L989.319 327.784C1038.82 324.954 1073.72 294.179 1076.14 251.225C1078 218.207 1098.95 191.254 1133.47 181.335C1190.16 165.054 1233.24 158.918 1297.3 155.971" stroke="#00D2FF" stroke-width="5" stroke-linecap="round" stroke-dasharray="0.05 20"/>
<path opacity="0.73913" d="M-334.726 574.407H468.339C548.084 574.407 614.396 540.386 646.436 483.036L677.328 427.745C707.145 374.372 766.795 340.991 839.812 336.816L997.789 327.784C1047.29 324.954 1082.19 294.179 1084.61 251.225C1086.47 218.207 1107.42 191.254 1141.94 181.335C1198.63 165.054 1241.71 158.918 1305.77 155.971" stroke="#00D2FF" stroke-width="5" stroke-linecap="round" stroke-dasharray="0.05 20"/>
<path opacity="0.782609" d="M-326.256 574.407H476.81C556.554 574.407 622.867 540.386 654.906 483.036L685.799 427.745C715.615 374.372 775.266 340.991 848.283 336.816L1006.26 327.784C1055.76 324.954 1090.66 294.179 1093.08 251.225C1094.94 218.207 1115.89 191.254 1150.41 181.335C1207.1 165.054 1250.18 158.918 1314.24 155.971" stroke="#00D2FF" stroke-width="5" stroke-linecap="round" stroke-dasharray="0.05 20"/>
<path opacity="0.826087" d="M-317.785 574.407H485.281C565.025 574.407 631.338 540.386 663.377 483.036L694.269 427.745C724.086 374.372 783.736 340.991 856.753 336.816L1014.73 327.784C1064.23 324.954 1099.13 294.179 1101.55 251.225C1103.41 218.207 1124.36 191.254 1158.88 181.335C1215.57 165.054 1258.65 158.918 1322.72 155.971" stroke="#00D2FF" stroke-width="5" stroke-linecap="round" stroke-dasharray="0.05 20"/>
<path opacity="0.869565" d="M-309.314 574.407H493.751C573.496 574.407 639.812 540.386 671.848 483.036L702.74 427.745C732.557 374.372 792.207 340.991 865.224 336.816L1023.2 327.784C1072.7 324.954 1107.6 294.179 1110.03 251.225C1111.88 218.207 1132.83 191.254 1167.35 181.335C1224.04 165.054 1267.12 158.918 1331.19 155.971" stroke="#00D2FF" stroke-width="5" stroke-linecap="round" stroke-dasharray="0.05 20"/>
<path opacity="0.913043" d="M-300.844 574.407H502.222C581.966 574.407 648.282 540.386 680.318 483.036L711.211 427.745C741.027 374.372 800.678 340.991 873.695 336.816L1031.67 327.784C1081.17 324.954 1116.07 294.179 1118.5 251.225C1120.35 218.207 1141.3 191.254 1175.83 181.335C1232.51 165.054 1275.59 158.918 1339.66 155.971" stroke="#00D2FF" stroke-width="5" stroke-linecap="round" stroke-dasharray="0.05 20"/>
<path opacity="0.956522" d="M-292.373 574.407H510.693C590.437 574.407 656.753 540.386 688.789 483.036L719.681 427.745C749.498 374.372 809.148 340.991 882.165 336.816L1040.14 327.784C1089.65 324.954 1124.54 294.179 1126.97 251.225C1128.82 218.207 1149.77 191.254 1184.3 181.335C1240.98 165.054 1284.06 158.918 1348.13 155.971" stroke="#00D2FF" stroke-width="5" stroke-linecap="round" stroke-dasharray="0.05 20"/>
<path d="M-283.902 574.407H519.163C598.907 574.407 665.223 540.386 697.259 483.036L728.152 427.745C757.968 374.372 817.619 340.991 890.636 336.816L1048.61 327.784C1098.12 324.954 1133.01 294.179 1135.44 251.225C1137.29 218.207 1158.24 191.254 1192.77 181.335C1249.45 165.054 1292.53 158.918 1356.6 155.971" stroke="#00D2FF" stroke-width="5" stroke-linecap="round" stroke-dasharray="0.05 20"/>
</g>
</g>
<defs>
<linearGradient id="paint0_linear_1005_8110" x1="-84.5729" y1="557.501" x2="270.423" y2="555.929" gradientUnits="userSpaceOnUse">
<stop offset="0.2185" stop-color="#07071C"/>
<stop offset="0.508251" stop-color="#AB21EC"/>
<stop offset="0.755624" stop-color="#AB21EC" stop-opacity="0"/>
</linearGradient>
<clipPath id="clip0_1005_8110">
<rect width="831" height="512" fill="white" transform="translate(0 50)"/>
</clipPath>
<clipPath id="clip1_1005_8110">
<rect width="939" height="562" fill="white" transform="translate(5)"/>
</clipPath>
<clipPath id="clip2_1005_8110">
<rect width="831" height="512" fill="white" transform="translate(0 50)"/>
</clipPath>
</defs>
</svg>
