<svg width="374" height="512" viewBox="0 0 374 512" fill="none" xmlns="http://www.w3.org/2000/svg">
<g opacity="0.7" clip-path="url(#clip0_1005_8194)">
<mask id="mask0_1005_8194" style="mask-type:alpha" maskUnits="userSpaceOnUse" x="-271" y="0" width="999" height="512">
<path d="M-270.042 0H727.158V512H-270.042V0Z" fill="white"/>
</mask>
<g mask="url(#mask0_1005_8194)">
<path opacity="0.043478" d="M-492.039 509.472H-191.368C-130.46 509.472 -75.5681 473.649 -52.3565 418.75L-7.83697 313.459C13.3459 263.359 61.1524 228.739 116.47 223.44L188.718 216.518C242.013 211.413 283.181 168.608 284.985 116.43C286.237 80.1431 306.267 45.9761 340.393 31.4367C375.947 16.2874 405.745 10.0921 447.824 6.9375" stroke="#AB21EC" stroke-width="5" stroke-linecap="round" stroke-dasharray="0.05 20"/>
<path opacity="0.086957" d="M-486.669 509.472H-185.998C-125.09 509.472 -70.1982 473.649 -46.9865 418.75L-2.46697 313.459C18.7159 263.359 66.5224 228.739 121.84 223.44L194.088 216.518C247.383 211.413 288.551 168.608 290.355 116.43C291.607 80.1431 311.637 45.9761 345.763 31.4367C381.317 16.2874 411.115 10.0921 453.194 6.9375" stroke="#AB21EC" stroke-width="5" stroke-linecap="round" stroke-dasharray="0.05 20"/>
<path opacity="0.130435" d="M-481.299 509.472H-180.628C-119.72 509.472 -64.8283 473.649 -41.6167 418.75L2.9029 313.459C24.0858 263.359 71.8923 228.739 127.21 223.44L199.458 216.518C252.753 211.413 293.921 168.608 295.725 116.43C296.976 80.1436 317.006 45.9761 351.132 31.4367C386.687 16.2874 416.485 10.0921 458.564 6.9375" stroke="#AB21EC" stroke-width="5" stroke-linecap="round" stroke-dasharray="0.05 20"/>
<path opacity="0.173913" d="M-475.929 509.472H-175.258C-114.35 509.472 -59.4583 473.649 -36.2467 418.75L8.2729 313.459C29.4557 263.359 77.2623 228.739 132.58 223.44L204.828 216.518C258.123 211.413 299.291 168.608 301.095 116.43C302.346 80.1436 322.376 45.9761 356.502 31.4367C392.057 16.2874 421.855 10.0921 463.934 6.9375" stroke="#AB21EC" stroke-width="5" stroke-linecap="round" stroke-dasharray="0.05 20"/>
<path opacity="0.217391" d="M-470.559 509.472H-169.888C-108.98 509.472 -54.0883 473.649 -30.8767 418.75L13.6429 313.459C34.8257 263.359 82.6323 228.739 137.95 223.44L210.198 216.518C263.493 211.413 304.661 168.608 306.465 116.43C307.716 80.1436 327.746 45.9761 361.872 31.4367C397.427 16.2874 427.225 10.0921 469.304 6.9375" stroke="#AB21EC" stroke-width="5" stroke-linecap="round" stroke-dasharray="0.05 20"/>
<path opacity="0.26087" d="M-465.189 509.472H-164.518C-103.61 509.472 -48.7184 473.649 -25.5068 418.75L19.0128 313.459C40.1956 263.359 88.0022 228.739 143.32 223.44L215.568 216.518C268.865 211.413 310.031 168.608 311.835 116.43C313.086 80.1436 333.116 45.9761 367.242 31.4367C402.797 16.2874 432.595 10.0921 474.674 6.9375" stroke="#AB21EC" stroke-width="5" stroke-linecap="round" stroke-dasharray="0.05 20"/>
<path opacity="0.304348" d="M-459.819 509.472H-159.148C-98.2401 509.472 -43.3484 473.649 -20.1368 418.75L24.3828 313.459C45.5656 263.359 93.3722 228.739 148.69 223.44L220.938 216.518C274.235 211.413 315.401 168.608 317.205 116.43C318.456 80.1436 338.486 45.9761 372.612 31.4367C408.167 16.2874 437.965 10.0921 480.044 6.9375" stroke="#AB21EC" stroke-width="5" stroke-linecap="round" stroke-dasharray="0.05 20"/>
<path opacity="0.347826" d="M-454.449 509.472H-153.778C-92.8701 509.472 -37.9784 473.649 -14.7668 418.75L29.7528 313.459C50.9356 263.359 98.7422 228.739 154.06 223.44L226.308 216.518C279.605 211.413 320.771 168.608 322.575 116.43C323.826 80.1435 343.856 45.9761 377.982 31.4366C413.537 16.2874 443.335 10.0921 485.414 6.9375" stroke="#AB21EC" stroke-width="5" stroke-linecap="round" stroke-dasharray="0.05 20"/>
<path opacity="0.391304" d="M-449.079 509.472H-148.408C-87.5002 509.472 -32.6086 473.649 -9.39694 418.75L35.1226 313.459C56.3055 263.359 104.112 228.739 159.43 223.44L231.677 216.518C284.975 211.413 326.141 168.608 327.945 116.43C329.196 80.1431 349.226 45.9761 383.352 31.4367C418.907 16.2874 448.704 10.0921 490.783 6.9375" stroke="#AB21EC" stroke-width="5" stroke-linecap="round" stroke-dasharray="0.05 20"/>
<path opacity="0.434783" d="M-443.709 509.472H-143.038C-82.1302 509.472 -27.2386 473.649 -4.02694 418.75L40.4926 313.459C61.6755 263.359 109.482 228.739 164.8 223.44L237.047 216.518C290.345 211.413 331.511 168.608 333.315 116.43C334.566 80.1431 354.596 45.9761 388.722 31.4367C424.277 16.2874 454.074 10.0921 496.153 6.9375" stroke="#AB21EC" stroke-width="5" stroke-linecap="round" stroke-dasharray="0.05 20"/>
<path opacity="0.478261" d="M-438.34 509.472H-137.668C-76.7603 509.472 -21.8687 473.649 1.34293 418.75L45.8625 313.459C67.0453 263.359 114.852 228.739 170.17 223.44L242.417 216.518C295.715 211.413 336.881 168.608 338.685 116.43C339.936 80.1431 359.966 45.9761 394.092 31.4367C429.647 16.2874 459.444 10.0921 501.523 6.9375" stroke="#AB21EC" stroke-width="5" stroke-linecap="round" stroke-dasharray="0.05 20"/>
<path opacity="0.521739" d="M-432.97 509.472H-132.298C-71.3903 509.472 -16.4987 473.649 6.71292 418.75L51.2325 313.459C72.4153 263.359 120.222 228.739 175.54 223.44L247.787 216.518C301.085 211.413 342.251 168.608 344.055 116.43C345.306 80.1431 365.336 45.9761 399.462 31.4367C435.017 16.2874 464.814 10.0921 506.893 6.9375" stroke="#AB21EC" stroke-width="5" stroke-linecap="round" stroke-dasharray="0.05 20"/>
<path opacity="0.565217" d="M-427.6 509.472H-126.928C-66.0204 509.472 -11.1287 473.649 12.0829 418.75L56.6025 313.459C77.7853 263.359 125.592 228.739 180.91 223.44L253.157 216.518C306.455 211.413 347.621 168.608 349.425 116.43C350.676 80.1436 370.706 45.9761 404.832 31.4367C440.387 16.2874 470.184 10.0921 512.263 6.9375" stroke="#AB21EC" stroke-width="5" stroke-linecap="round" stroke-dasharray="0.05 20"/>
<path opacity="0.608696" d="M-422.23 509.472H-121.559C-60.6505 509.472 -5.75882 473.649 17.4528 418.75L61.9724 313.459C83.1552 263.359 130.962 228.739 186.28 223.44L258.527 216.518C311.824 211.413 352.99 168.608 354.795 116.43C356.046 80.1436 376.076 45.9761 410.202 31.4367C445.756 16.2874 475.554 10.0921 517.633 6.9375" stroke="#AB21EC" stroke-width="5" stroke-linecap="round" stroke-dasharray="0.05 20"/>
<path opacity="0.652174" d="M-416.86 509.472H-116.189C-55.2805 509.472 -0.388828 473.649 22.8228 418.75L67.3424 313.459C88.5252 263.359 136.332 228.739 191.65 223.44L263.897 216.518C317.194 211.413 358.36 168.608 360.165 116.43C361.416 80.1436 381.446 45.9761 415.572 31.4367C451.126 16.2874 480.924 10.0921 523.003 6.9375" stroke="#AB21EC" stroke-width="5" stroke-linecap="round" stroke-dasharray="0.05 20"/>
<path opacity="0.695652" d="M-411.49 509.472H-110.819C-49.9105 509.472 4.98117 473.649 28.1928 418.75L72.7124 313.459C93.8952 263.359 141.702 228.739 197.02 223.44L269.268 216.518C322.564 211.413 363.73 168.608 365.535 116.43C366.786 80.1436 386.816 45.9761 420.942 31.4367C456.496 16.2874 486.294 10.0921 528.373 6.9375" stroke="#AB21EC" stroke-width="5" stroke-linecap="round" stroke-dasharray="0.05 20"/>
<path opacity="0.73913" d="M-406.12 509.472H-105.449C-44.5406 509.472 10.351 473.649 33.5627 418.75L78.0822 313.459C99.2651 263.359 147.072 228.739 202.39 223.44L274.638 216.518C327.934 211.413 369.1 168.608 370.905 116.43C372.156 80.1435 392.186 45.9761 426.312 31.4366C461.866 16.2874 491.664 10.0921 533.743 6.9375" stroke="#AB21EC" stroke-width="5" stroke-linecap="round" stroke-dasharray="0.05 20"/>
<path opacity="0.782609" d="M-400.75 509.472H-100.079C-39.1706 509.472 15.721 473.649 38.9327 418.75L83.4522 313.459C104.635 263.359 152.442 228.739 207.76 223.44L280.008 216.518C333.304 211.413 374.47 168.608 376.275 116.43C377.526 80.1431 397.556 45.9761 431.682 31.4367C467.236 16.2874 497.034 10.0921 539.113 6.9375" stroke="#AB21EC" stroke-width="5" stroke-linecap="round" stroke-dasharray="0.05 20"/>
<path opacity="0.826087" d="M-395.38 509.472H-94.7088C-33.8006 509.472 21.091 473.649 44.3026 418.75L88.8222 313.459C110.005 263.359 157.812 228.739 213.13 223.44L285.378 216.518C338.674 211.413 379.84 168.608 381.645 116.43C382.896 80.1431 402.926 45.9761 437.052 31.4367C472.606 16.2874 502.404 10.0921 544.483 6.9375" stroke="#AB21EC" stroke-width="5" stroke-linecap="round" stroke-dasharray="0.05 20"/>
<path opacity="0.869565" d="M-390.01 509.472H-89.3389C-28.4308 509.472 26.4609 473.649 49.6725 418.75L94.1921 313.459C115.375 263.359 163.182 228.739 218.5 223.44L290.747 216.518C344.044 211.413 385.21 168.608 387.014 116.43C388.266 80.1431 408.296 45.9761 442.422 31.4367C477.976 16.2874 507.774 10.0921 549.853 6.9375" stroke="#AB21EC" stroke-width="5" stroke-linecap="round" stroke-dasharray="0.05 20"/>
<path opacity="0.913043" d="M-384.64 509.472H-83.9689C-23.0608 509.472 31.8309 473.649 55.0425 418.75L99.5621 313.459C120.745 263.359 168.551 228.739 223.87 223.44L296.117 216.518C349.414 211.413 390.58 168.608 392.384 116.43C393.636 80.1431 413.666 45.9761 447.792 31.4367C483.346 16.2874 513.144 10.0921 555.223 6.9375" stroke="#AB21EC" stroke-width="5" stroke-linecap="round" stroke-dasharray="0.05 20"/>
<path opacity="0.956522" d="M-379.27 509.472H-78.5989C-17.6908 509.472 37.2009 473.649 60.4125 418.75L104.932 313.459C126.115 263.359 173.921 228.739 229.24 223.44L301.487 216.518C354.784 211.413 395.95 168.608 397.754 116.43C399.006 80.1436 419.036 45.9761 453.162 31.4367C488.716 16.2874 518.514 10.0921 560.593 6.9375" stroke="#AB21EC" stroke-width="5" stroke-linecap="round" stroke-dasharray="0.05 20"/>
<path d="M-373.9 509.472H-73.229C-12.3209 509.472 42.5702 473.649 65.7824 418.75L110.302 313.459C131.485 263.359 179.291 228.739 234.609 223.44L306.857 216.518C360.154 211.413 401.32 168.608 403.124 116.43C404.376 80.1435 424.405 45.9761 458.532 31.4367C494.086 16.2874 523.884 10.0921 565.963 6.9375" stroke="#AB21EC" stroke-width="5" stroke-linecap="round" stroke-dasharray="0.05 20"/>
<path d="M-546.239 509.541H-73.5758C-12.745 509.541 42.0924 473.808 65.355 419.012L110.24 313.28C131.466 263.279 179.224 228.745 234.466 223.453L306.857 216.518C360.154 211.412 401.326 168.607 403.125 116.429C404.376 80.1429 424.406 45.9758 458.532 31.4364C494.092 16.2872 523.884 10.0921 565.963 6.9375" stroke="url(#paint0_linear_1005_8194)" stroke-width="6" stroke-linecap="round"/>
</g>
</g>
<g opacity="0.7" clip-path="url(#clip1_1005_8194)">
<mask id="mask1_1005_8194" style="mask-type:alpha" maskUnits="userSpaceOnUse" x="-257" y="-117" width="939" height="633">
<path d="M-257 -117H682V515.437H-257V-117Z" fill="white"/>
</mask>
<g mask="url(#mask1_1005_8194)">
<path opacity="0.043478" d="M-238.496 512.285H62.0239C110.245 512.285 155.151 480.897 181.19 428.993L212.935 365.714C238.975 313.809 283.878 282.421 332.102 282.421H381.297C449.884 282.421 501.724 202.988 489.457 116.692C477.19 30.3959 529.029 -49.0383 597.616 -49.0383H678.471" stroke="#2D68FF" stroke-width="5" stroke-linecap="round" stroke-dasharray="0.05 20"/>
<path opacity="0.086957" d="M-243.553 512.285H56.9674C105.189 512.285 150.095 480.897 176.134 428.993L207.879 365.714C233.918 313.809 278.822 282.421 327.046 282.421H376.241C444.828 282.421 496.668 202.988 484.4 116.692C472.133 30.3959 523.973 -49.0383 592.56 -49.0383H673.414" stroke="#2D68FF" stroke-width="5" stroke-linecap="round" stroke-dasharray="0.05 20"/>
<path opacity="0.130435" d="M-248.609 512.285H51.9109C100.132 512.285 145.038 480.897 171.077 428.993L202.822 365.714C228.862 313.809 273.765 282.421 321.989 282.421H371.184C439.771 282.421 491.611 202.988 479.344 116.692C467.077 30.3959 518.916 -49.0383 587.503 -49.0383H668.357" stroke="#2D68FF" stroke-width="5" stroke-linecap="round" stroke-dasharray="0.05 20"/>
<path opacity="0.173913" d="M-253.666 512.285H46.8542C95.0754 512.285 139.982 480.897 166.021 428.993L197.766 365.714C223.805 313.809 268.709 282.421 316.933 282.421H366.128C434.715 282.421 486.554 202.988 474.287 116.692C462.02 30.3959 513.86 -49.0383 582.447 -49.0383H663.301" stroke="#2D68FF" stroke-width="5" stroke-linecap="round" stroke-dasharray="0.05 20"/>
<path opacity="0.217391" d="M-258.722 512.285H41.7977C90.0189 512.285 134.925 480.897 160.964 428.993L192.709 365.714C218.748 313.809 263.652 282.421 311.876 282.421H361.071C429.658 282.421 481.498 202.988 469.231 116.692C456.964 30.3959 508.803 -49.0383 577.39 -49.0383H658.244" stroke="#2D68FF" stroke-width="5" stroke-linecap="round" stroke-dasharray="0.05 20"/>
<path opacity="0.26087" d="M-263.779 512.285H36.7412C84.9624 512.285 129.869 480.897 155.908 428.993L187.653 365.714C213.692 313.809 258.595 282.421 306.82 282.421H356.015C424.602 282.421 476.441 202.988 464.174 116.692C451.907 30.3959 503.747 -49.0383 572.334 -49.0383H653.188" stroke="#2D68FF" stroke-width="5" stroke-linecap="round" stroke-dasharray="0.05 20"/>
<path opacity="0.304348" d="M-268.835 512.285H31.6847C79.9059 512.285 124.812 480.897 150.851 428.993L182.596 365.714C208.635 313.809 253.539 282.421 301.763 282.421H350.958C419.545 282.421 471.385 202.988 459.118 116.692C446.851 30.3959 498.69 -49.0383 567.277 -49.0383H648.131" stroke="#2D68FF" stroke-width="5" stroke-linecap="round" stroke-dasharray="0.05 20"/>
<path opacity="0.347826" d="M-273.892 512.285H26.6281C74.8494 512.285 119.755 480.897 145.795 428.993L177.54 365.714C203.579 313.809 248.485 282.421 296.707 282.421H345.902C414.489 282.421 466.328 202.988 454.061 116.692C441.794 30.3959 493.634 -49.0383 562.221 -49.0383H643.075" stroke="#2D68FF" stroke-width="5" stroke-linecap="round" stroke-dasharray="0.05 20"/>
<path opacity="0.391304" d="M-278.948 512.285H21.5716C69.7928 512.285 114.699 480.897 140.738 428.993L172.483 365.714C198.522 313.809 243.428 282.421 291.65 282.421H340.845C409.432 282.421 461.272 202.988 449.005 116.692C436.737 30.3959 488.577 -49.0383 557.164 -49.0383H638.018" stroke="#2D68FF" stroke-width="5" stroke-linecap="round" stroke-dasharray="0.05 20"/>
<path opacity="0.434783" d="M-284.005 512.285H16.515C64.7362 512.285 109.642 480.897 135.682 428.993L167.426 365.714C193.466 313.809 238.372 282.421 286.594 282.421H335.789C404.376 282.421 456.215 202.988 443.948 116.692C431.681 30.3959 483.521 -49.0383 552.107 -49.0383H632.962" stroke="#2D68FF" stroke-width="5" stroke-linecap="round" stroke-dasharray="0.05 20"/>
<path opacity="0.478261" d="M-289.062 512.285H11.4585C59.6797 512.285 104.586 480.897 130.625 428.993L162.37 365.714C188.409 313.809 233.315 282.421 281.537 282.421H330.732C399.319 282.421 451.159 202.988 438.892 116.692C426.624 30.3959 478.464 -49.0383 547.051 -49.0383H627.905" stroke="#2D68FF" stroke-width="5" stroke-linecap="round" stroke-dasharray="0.05 20"/>
<path opacity="0.521739" d="M-294.118 512.285H6.40195C54.6232 512.285 99.5293 480.897 125.568 428.993L157.313 365.714C183.353 313.809 228.259 282.421 276.48 282.421H325.676C394.262 282.421 446.102 202.988 433.835 116.692C421.568 30.3959 473.408 -49.0383 541.994 -49.0383H622.849" stroke="#2D68FF" stroke-width="5" stroke-linecap="round" stroke-dasharray="0.05 20"/>
<path opacity="0.565217" d="M-299.175 512.285H1.3454C49.5666 512.285 94.4728 480.897 120.512 428.993L152.257 365.714C178.296 313.809 223.202 282.421 271.424 282.421H320.619C389.206 282.421 441.046 202.988 428.778 116.692C416.511 30.3959 468.351 -49.0383 536.938 -49.0383H617.792" stroke="#2D68FF" stroke-width="5" stroke-linecap="round" stroke-dasharray="0.05 20"/>
<path opacity="0.608696" d="M-304.231 512.285H-3.71112C44.5101 512.285 89.4163 480.897 115.455 428.993L147.2 365.714C173.24 313.809 218.146 282.421 266.367 282.421H315.562C384.149 282.421 435.989 202.988 423.722 116.692C411.455 30.3959 463.294 -49.0383 531.881 -49.0383H612.736" stroke="#2D68FF" stroke-width="5" stroke-linecap="round" stroke-dasharray="0.05 20"/>
<path opacity="0.652174" d="M-309.288 512.285H-8.76771C39.4535 512.285 84.3597 480.897 110.399 428.993L142.144 365.714C168.183 313.809 213.089 282.421 261.311 282.421H310.506C379.093 282.421 430.933 202.988 418.665 116.692C406.398 30.3959 458.238 -49.0383 526.825 -49.0383H607.679" stroke="#2D68FF" stroke-width="5" stroke-linecap="round" stroke-dasharray="0.05 20"/>
<path opacity="0.695652" d="M-314.344 512.285H-13.8243C34.3969 512.285 79.303 480.897 105.342 428.993L137.087 365.714C163.126 313.809 208.032 282.421 256.254 282.421H305.449C374.036 282.421 425.876 202.988 413.609 116.692C401.342 30.3959 453.181 -49.0383 521.768 -49.0383H602.622" stroke="#2D68FF" stroke-width="5" stroke-linecap="round" stroke-dasharray="0.05 20"/>
<path opacity="0.73913" d="M-319.401 512.285H-18.8809C29.3403 512.285 74.2465 480.897 100.286 428.993L132.031 365.714C158.07 313.809 202.976 282.421 251.198 282.421H300.393C368.98 282.421 420.819 202.988 408.552 116.692C396.285 30.3959 448.125 -49.0383 516.712 -49.0383H597.566" stroke="#2D68FF" stroke-width="5" stroke-linecap="round" stroke-dasharray="0.05 20"/>
<path opacity="0.782609" d="M-324.457 512.285H-23.9374C24.2838 512.285 69.19 480.897 95.2291 428.993L126.974 365.714C153.013 313.809 197.919 282.421 246.141 282.421H295.336C363.923 282.421 415.763 202.988 403.496 116.692C391.228 30.3959 443.068 -49.0383 511.655 -49.0383H592.509" stroke="#2D68FF" stroke-width="5" stroke-linecap="round" stroke-dasharray="0.05 20"/>
<path opacity="0.826087" d="M-329.514 512.285H-28.9939C19.2273 512.285 64.1335 480.897 90.1726 428.993L121.918 365.714C147.957 313.809 192.863 282.421 241.084 282.421H290.28C358.867 282.421 410.706 202.988 398.439 116.692C386.172 30.3959 438.012 -49.0383 506.599 -49.0383H587.453" stroke="#2D68FF" stroke-width="5" stroke-linecap="round" stroke-dasharray="0.05 20"/>
<path opacity="0.869565" d="M-334.57 512.285H-34.0504C14.1708 512.285 59.0769 480.897 85.1161 428.993L116.861 365.714C142.9 313.809 187.806 282.421 236.028 282.421H285.223C353.81 282.421 405.65 202.988 393.383 116.692C381.115 30.3959 432.955 -49.0383 501.542 -49.0383H582.396" stroke="#2D68FF" stroke-width="5" stroke-linecap="round" stroke-dasharray="0.05 20"/>
<path opacity="0.913043" d="M-339.627 512.285H-39.1071C9.11415 512.285 54.0203 480.897 80.0595 428.993L111.804 365.714C137.844 313.809 182.75 282.421 230.971 282.421H280.167C348.753 282.421 400.593 202.988 388.326 116.692C376.059 30.3959 427.899 -49.0383 496.485 -49.0383H577.34" stroke="#2D68FF" stroke-width="5" stroke-linecap="round" stroke-dasharray="0.05 20"/>
<path opacity="0.956522" d="M-344.683 512.285H-44.1636C4.05763 512.285 48.9638 480.897 75.003 428.993L106.748 365.714C132.787 313.809 177.693 282.421 225.914 282.421H275.11C343.697 282.421 395.537 202.988 383.269 116.692C371.002 30.3959 422.842 -49.0383 491.429 -49.0383H572.283" stroke="#2D68FF" stroke-width="5" stroke-linecap="round" stroke-dasharray="0.05 20"/>
<path d="M-349.74 512.285H-49.2201C-0.99889 512.285 43.9073 480.897 69.9464 428.993L101.691 365.714C127.731 313.809 172.637 282.421 220.858 282.421H270.054C338.64 282.421 390.48 202.988 378.213 116.692C365.946 30.3959 417.785 -49.0383 486.372 -49.0383H567.227" stroke="#2D68FF" stroke-width="5" stroke-linecap="round" stroke-dasharray="0.05 20"/>
</g>
</g>
<g opacity="0.7" clip-path="url(#clip2_1005_8194)">
<mask id="mask2_1005_8194" style="mask-type:alpha" maskUnits="userSpaceOnUse" x="-477" y="-296" width="1574" height="824">
<path d="M-476.944 -295.844H1096.05V527.952H-476.944V-295.844Z" fill="white"/>
</mask>
<g mask="url(#mask2_1005_8194)">
<path opacity="0.043478" d="M-732.257 524.407H70.8091C150.553 524.407 216.866 490.385 248.905 433.035L279.793 377.744C309.611 324.372 369.262 290.99 442.282 286.816L600.259 277.783C649.762 274.953 684.661 244.179 687.083 201.224C688.938 168.206 709.886 141.253 744.413 131.335C801.098 115.054 844.18 108.918 908.244 105.971" stroke="#00D2FF" stroke-width="5" stroke-linecap="round" stroke-dasharray="0.05 20"/>
<path opacity="0.086957" d="M-723.786 524.407H79.2798C159.024 524.407 225.337 490.385 257.376 433.035L288.264 377.744C318.082 324.372 377.735 290.99 450.752 286.816L608.73 277.783C658.232 274.953 693.131 244.179 695.554 201.224C697.409 168.206 718.357 141.253 752.883 131.335C809.569 115.054 852.651 108.918 916.714 105.971" stroke="#00D2FF" stroke-width="5" stroke-linecap="round" stroke-dasharray="0.05 20"/>
<path opacity="0.130435" d="M-715.315 524.407H87.7503C167.495 524.407 233.807 490.385 265.847 433.035L296.735 377.744C326.552 324.372 386.206 290.99 459.223 286.816L617.2 277.783C666.703 274.953 701.602 244.179 704.025 201.224C705.88 168.206 726.828 141.253 761.354 131.335C818.04 115.054 861.121 108.918 925.185 105.971" stroke="#00D2FF" stroke-width="5" stroke-linecap="round" stroke-dasharray="0.05 20"/>
<path opacity="0.173913" d="M-706.845 524.407H96.2211C175.965 524.407 242.278 490.385 274.317 433.035L305.205 377.744C335.023 324.372 394.677 290.99 467.694 286.816L625.671 277.783C675.174 274.953 710.073 244.179 712.495 201.224C714.35 168.206 735.298 141.253 769.825 131.335C826.51 115.054 869.592 108.918 933.655 105.971" stroke="#00D2FF" stroke-width="5" stroke-linecap="round" stroke-dasharray="0.05 20"/>
<path opacity="0.217391" d="M-698.374 524.407H104.692C184.436 524.407 250.748 490.385 282.788 433.035L313.676 377.744C343.494 324.372 403.147 290.99 476.164 286.816L634.142 277.783C683.644 274.953 718.543 244.179 720.966 201.224C722.821 168.206 743.769 141.253 778.295 131.335C834.981 115.054 878.063 108.918 942.126 105.971" stroke="#00D2FF" stroke-width="5" stroke-linecap="round" stroke-dasharray="0.05 20"/>
<path opacity="0.26087" d="M-689.903 524.407H113.162C192.907 524.407 259.219 490.385 291.259 433.035L322.147 377.744C351.964 324.372 411.618 290.99 484.635 286.816L642.612 277.783C692.115 274.953 727.014 244.179 729.437 201.224C731.292 168.206 752.24 141.253 786.766 131.335C843.452 115.054 886.533 108.918 950.597 105.971" stroke="#00D2FF" stroke-width="5" stroke-linecap="round" stroke-dasharray="0.05 20"/>
<path opacity="0.304348" d="M-681.433 524.407H121.633C201.377 524.407 267.69 490.385 299.729 433.035L330.617 377.744C360.435 324.372 420.088 290.99 493.105 286.816L651.083 277.783C700.585 274.953 735.485 244.179 737.907 201.224C739.762 168.206 760.71 141.253 795.237 131.335C851.922 115.054 895.004 108.918 959.067 105.971" stroke="#00D2FF" stroke-width="5" stroke-linecap="round" stroke-dasharray="0.05 20"/>
<path opacity="0.347826" d="M-672.962 524.407H130.104C209.848 524.407 276.16 490.385 308.2 433.035L339.088 377.744C368.906 324.372 428.559 290.99 501.576 286.816L659.554 277.783C709.056 274.953 743.955 244.179 746.378 201.224C748.233 168.206 769.181 141.253 803.707 131.335C860.393 115.054 903.475 108.918 967.538 105.971" stroke="#00D2FF" stroke-width="5" stroke-linecap="round" stroke-dasharray="0.05 20"/>
<path opacity="0.391304" d="M-664.491 524.407H138.574C218.319 524.407 284.631 490.385 316.67 433.035L347.559 377.744C377.379 324.372 437.03 290.99 510.047 286.816L668.024 277.783C717.527 274.953 752.426 244.179 754.848 201.224C756.704 168.206 777.651 141.253 812.178 131.335C868.863 115.054 911.945 108.918 976.009 105.971" stroke="#00D2FF" stroke-width="5" stroke-linecap="round" stroke-dasharray="0.05 20"/>
<path opacity="0.434783" d="M-656.021 524.407H147.045C226.789 524.407 293.102 490.385 325.141 433.035L356.029 377.744C385.85 324.372 445.5 290.99 518.517 286.816L676.495 277.783C725.997 274.953 760.897 244.179 763.319 201.224C765.174 168.206 786.122 141.253 820.649 131.335C877.334 115.054 920.416 108.918 984.479 105.971" stroke="#00D2FF" stroke-width="5" stroke-linecap="round" stroke-dasharray="0.05 20"/>
<path opacity="0.478261" d="M-647.55 524.407H155.515C235.26 524.407 301.572 490.385 333.612 433.035L364.5 377.744C394.321 324.372 453.971 290.99 526.988 286.816L684.966 277.783C734.468 274.953 769.367 244.179 771.79 201.224C773.645 168.206 794.593 141.253 829.119 131.335C885.805 115.054 928.886 108.918 992.95 105.971" stroke="#00D2FF" stroke-width="5" stroke-linecap="round" stroke-dasharray="0.05 20"/>
<path opacity="0.521739" d="M-639.079 524.407H163.986C243.731 524.407 310.043 490.385 342.082 433.035L372.975 377.744C402.791 324.372 462.442 290.99 535.459 286.816L693.436 277.783C742.939 274.953 777.838 244.179 780.26 201.224C782.115 168.206 803.063 141.253 837.59 131.335C894.275 115.054 937.357 108.918 1001.42 105.971" stroke="#00D2FF" stroke-width="5" stroke-linecap="round" stroke-dasharray="0.05 20"/>
<path opacity="0.565217" d="M-630.609 524.407H172.457C252.201 524.407 318.514 490.385 350.553 433.035L381.445 377.744C411.262 324.372 470.912 290.99 543.929 286.816L701.907 277.783C751.409 274.953 786.308 244.179 788.731 201.224C790.586 168.206 811.534 141.253 846.06 131.335C902.746 115.054 945.828 108.918 1009.89 105.971" stroke="#00D2FF" stroke-width="5" stroke-linecap="round" stroke-dasharray="0.05 20"/>
<path opacity="0.608696" d="M-622.138 524.407H180.927C260.672 524.407 326.984 490.385 359.024 433.035L389.916 377.744C419.733 324.372 479.383 290.99 552.4 286.816L710.378 277.783C759.88 274.953 794.779 244.179 797.202 201.224C799.057 168.206 820.005 141.253 854.531 131.335C911.217 115.054 954.298 108.918 1018.36 105.971" stroke="#00D2FF" stroke-width="5" stroke-linecap="round" stroke-dasharray="0.05 20"/>
<path opacity="0.652174" d="M-613.667 524.407H189.398C269.143 524.407 335.455 490.385 367.494 433.035L398.387 377.744C428.203 324.372 487.854 290.99 560.871 286.816L718.848 277.783C768.351 274.953 803.25 244.179 805.672 201.224C807.527 168.206 828.475 141.253 863.002 131.335C919.687 115.054 962.769 108.918 1026.83 105.971" stroke="#00D2FF" stroke-width="5" stroke-linecap="round" stroke-dasharray="0.05 20"/>
<path opacity="0.695652" d="M-605.197 524.407H197.869C277.613 524.407 343.926 490.385 375.965 433.035L406.857 377.744C436.674 324.372 496.324 290.99 569.341 286.816L727.319 277.783C776.821 274.953 811.72 244.179 814.143 201.224C815.998 168.206 836.946 141.253 871.472 131.335C928.158 115.054 971.24 108.918 1035.3 105.971" stroke="#00D2FF" stroke-width="5" stroke-linecap="round" stroke-dasharray="0.05 20"/>
<path opacity="0.73913" d="M-596.726 524.407H206.339C286.084 524.407 352.396 490.385 384.436 433.035L415.328 377.744C445.145 324.372 504.795 290.99 577.812 286.816L735.789 277.783C785.292 274.953 820.191 244.179 822.614 201.224C824.469 168.206 845.417 141.253 879.943 131.335C936.629 115.054 979.71 108.918 1043.77 105.971" stroke="#00D2FF" stroke-width="5" stroke-linecap="round" stroke-dasharray="0.05 20"/>
<path opacity="0.782609" d="M-588.256 524.407H214.81C294.554 524.407 360.867 490.385 392.906 433.035L423.799 377.744C453.615 324.372 513.266 290.99 586.283 286.816L744.26 277.783C793.763 274.953 828.662 244.179 831.084 201.224C832.939 168.206 853.887 141.253 888.414 131.335C945.099 115.054 988.181 108.918 1052.24 105.971" stroke="#00D2FF" stroke-width="5" stroke-linecap="round" stroke-dasharray="0.05 20"/>
<path opacity="0.826087" d="M-579.785 524.407H223.281C303.025 524.407 369.338 490.385 401.377 433.035L432.269 377.744C462.086 324.372 521.736 290.99 594.753 286.816L752.731 277.783C802.233 274.953 837.132 244.179 839.555 201.224C841.41 168.206 862.358 141.253 896.884 131.335C953.57 115.054 996.652 108.918 1060.72 105.971" stroke="#00D2FF" stroke-width="5" stroke-linecap="round" stroke-dasharray="0.05 20"/>
<path opacity="0.869565" d="M-571.314 524.407H231.751C311.496 524.407 377.812 490.385 409.848 433.035L440.74 377.744C470.557 324.372 530.207 290.99 603.224 286.816L761.201 277.783C810.704 274.953 845.603 244.179 848.026 201.224C849.881 168.206 870.829 141.253 905.355 131.335C962.041 115.054 1005.12 108.918 1069.19 105.971" stroke="#00D2FF" stroke-width="5" stroke-linecap="round" stroke-dasharray="0.05 20"/>
<path opacity="0.913043" d="M-562.844 524.407H240.222C319.966 524.407 386.282 490.385 418.318 433.035L449.211 377.744C479.027 324.372 538.678 290.99 611.695 286.816L769.672 277.783C819.175 274.953 854.074 244.179 856.496 201.224C858.351 168.206 879.299 141.253 913.826 131.335C970.511 115.054 1013.59 108.918 1077.66 105.971" stroke="#00D2FF" stroke-width="5" stroke-linecap="round" stroke-dasharray="0.05 20"/>
<path opacity="0.956522" d="M-554.373 524.407H248.693C328.437 524.407 394.753 490.385 426.789 433.035L457.681 377.744C487.498 324.372 547.148 290.99 620.165 286.816L778.143 277.783C827.645 274.953 862.544 244.179 864.967 201.224C866.822 168.206 887.77 141.253 922.296 131.335C978.982 115.054 1022.06 108.918 1086.13 105.971" stroke="#00D2FF" stroke-width="5" stroke-linecap="round" stroke-dasharray="0.05 20"/>
<path d="M-545.902 524.407H257.163C336.907 524.407 403.223 490.385 435.259 433.035L466.152 377.744C495.968 324.372 555.619 290.99 628.636 286.816L786.613 277.783C836.116 274.953 871.015 244.179 873.437 201.224C875.292 168.206 896.24 141.253 930.767 131.335C987.452 115.054 1030.53 108.918 1094.6 105.971" stroke="#00D2FF" stroke-width="5" stroke-linecap="round" stroke-dasharray="0.05 20"/>
</g>
</g>
<defs>
<linearGradient id="paint0_linear_1005_8194" x1="-346.573" y1="507.502" x2="8.423" y2="505.929" gradientUnits="userSpaceOnUse">
<stop offset="0.2185" stop-color="#07071C"/>
<stop offset="0.508251" stop-color="#AB21EC"/>
<stop offset="0.755624" stop-color="#AB21EC" stop-opacity="0"/>
</linearGradient>
<clipPath id="clip0_1005_8194">
<rect width="374" height="512" fill="white"/>
</clipPath>
<clipPath id="clip1_1005_8194">
<rect width="372" height="323" fill="white" transform="translate(2 189)"/>
</clipPath>
<clipPath id="clip2_1005_8194">
<rect width="374" height="512" fill="white"/>
</clipPath>
</defs>
</svg>
