<svg width="33" height="33" viewBox="0 0 33 33" fill="none" xmlns="http://www.w3.org/2000/svg">
<path d="M17.7477 21.976H15.2637C13.5063 21.976 12.0661 20.4961 12.0661 18.6727C12.0661 18.1309 12.5153 17.6817 13.0571 17.6817C13.5988 17.6817 14.0481 18.1309 14.0481 18.6727C14.0481 19.3994 14.5898 19.994 15.2637 19.994H17.7477C18.2631 19.994 18.6727 19.5315 18.6727 18.9634C18.6727 18.2498 18.4745 18.1441 18.0252 17.9856L14.0481 16.5982C13.2024 16.2943 12.0661 15.6865 12.0661 13.7441C12.0661 12.0925 13.3742 10.7315 14.973 10.7315H17.457C19.2144 10.7315 20.6547 12.2114 20.6547 14.0348C20.6547 14.5766 20.2054 15.0258 19.6637 15.0258C19.1219 15.0258 18.6727 14.5766 18.6727 14.0348C18.6727 13.3081 18.1309 12.7135 17.457 12.7135H14.973C14.4577 12.7135 14.0481 13.176 14.0481 13.7441C14.0481 14.4577 14.2462 14.5634 14.6955 14.7219L18.6727 16.1093C19.5183 16.4132 20.6547 17.021 20.6547 18.9634C20.6547 20.6282 19.3465 21.976 17.7477 21.976Z" fill="#BD47FB"/>
<path d="M16.3604 23.2973C15.8186 23.2973 15.3694 22.8481 15.3694 22.3063V10.4144C15.3694 9.87268 15.8186 9.42343 16.3604 9.42343C16.9021 9.42343 17.3514 9.87268 17.3514 10.4144V22.3063C17.3514 22.8481 16.9021 23.2973 16.3604 23.2973Z" fill="#BD47FB"/>
<path d="M16.3604 30.5646C8.52493 30.5646 2.15616 24.1958 2.15616 16.3604C2.15616 8.52493 8.52493 2.15616 16.3604 2.15616C16.9021 2.15616 17.3514 2.60541 17.3514 3.14715C17.3514 3.68889 16.9021 4.13814 16.3604 4.13814C9.62162 4.13814 4.13814 9.62162 4.13814 16.3604C4.13814 23.0991 9.62162 28.5826 16.3604 28.5826C23.0991 28.5826 28.5826 23.0991 28.5826 16.3604C28.5826 15.8186 29.0318 15.3694 29.5736 15.3694C30.1153 15.3694 30.5646 15.8186 30.5646 16.3604C30.5646 24.1958 24.1958 30.5646 16.3604 30.5646Z" fill="#BD47FB"/>
<path d="M29.5736 9.42343C29.0318 9.42343 28.5826 8.97418 28.5826 8.43244V4.13814H24.2883C23.7466 4.13814 23.2973 3.68889 23.2973 3.14715C23.2973 2.60541 23.7466 2.15616 24.2883 2.15616H29.5736C30.1153 2.15616 30.5646 2.60541 30.5646 3.14715V8.43244C30.5646 8.97418 30.1153 9.42343 29.5736 9.42343Z" fill="#BD47FB"/>
<path d="M22.9669 10.7448C22.7159 10.7448 22.4648 10.6523 22.2666 10.4541C21.8834 10.0709 21.8834 9.43666 22.2666 9.05348L28.8732 2.44687C29.2564 2.06369 29.8906 2.06369 30.2738 2.44687C30.657 2.83006 30.657 3.46429 30.2738 3.84747L23.6672 10.4541C23.469 10.6523 23.218 10.7448 22.9669 10.7448Z" fill="#BD47FB"/>
</svg>
