<svg width="31" height="31" viewBox="0 0 31 31" fill="none" xmlns="http://www.w3.org/2000/svg">
<path d="M26.6342 16.8821C26.1433 16.8821 25.73 16.5075 25.6654 16.0167C25.3554 13.0975 23.7796 10.4496 21.3512 8.77043C20.9121 8.46043 20.8087 7.86626 21.1058 7.42709C21.4158 6.98793 22.0229 6.88459 22.4492 7.18168C25.3425 9.18376 27.2025 12.3354 27.5771 15.81C27.6287 16.3396 27.2542 16.8175 26.7117 16.8821C26.6987 16.8821 26.66 16.8821 26.6342 16.8821Z" fill="#F27F16"/>
<path d="M4.50792 16.9467C4.46917 16.9467 4.44333 16.9467 4.40458 16.9467C3.875 16.8821 3.4875 16.4042 3.53917 15.8746C3.88792 12.4 5.735 9.26124 8.58958 7.23332C9.02875 6.92332 9.63583 7.02665 9.94583 7.46582C10.2558 7.90499 10.1525 8.51207 9.71333 8.82207C7.31083 10.5142 5.76083 13.1621 5.46375 16.0812C5.425 16.5721 4.99875 16.9467 4.50792 16.9467Z" fill="#F27F16"/>
<path d="M15.5775 29.2046C13.6658 29.2046 11.8446 28.7654 10.1396 27.9129C9.66166 27.6675 9.46791 27.0862 9.71333 26.6083C9.95875 26.1304 10.54 25.9367 11.0179 26.1821C13.8079 27.59 17.1662 27.6158 19.9821 26.2596C20.46 26.0271 21.0412 26.2337 21.2737 26.7117C21.5062 27.1896 21.2996 27.7708 20.8217 28.0033C19.1683 28.8042 17.4117 29.2046 15.5775 29.2046Z" fill="#F27F16"/>
<path d="M15.5775 10.9017C13.0587 10.9017 11.0179 8.86083 11.0179 6.34208C11.0179 3.82333 13.0587 1.7825 15.5775 1.7825C18.0962 1.7825 20.1371 3.82333 20.1371 6.34208C20.1371 8.86083 18.0833 10.9017 15.5775 10.9017ZM15.5775 3.73292C14.1308 3.73292 12.9554 4.90833 12.9554 6.355C12.9554 7.80167 14.1308 8.97708 15.5775 8.97708C17.0242 8.97708 18.1996 7.80167 18.1996 6.355C18.1996 4.90833 17.0112 3.73292 15.5775 3.73292Z" fill="#F27F16"/>
<path d="M6.23875 26.6988C3.72 26.6988 1.67917 24.6579 1.67917 22.1392C1.67917 19.6333 3.72 17.5796 6.23875 17.5796C8.7575 17.5796 10.7983 19.6204 10.7983 22.1392C10.7983 24.645 8.7575 26.6988 6.23875 26.6988ZM6.23875 19.5171C4.79209 19.5171 3.61667 20.6925 3.61667 22.1392C3.61667 23.5858 4.79209 24.7613 6.23875 24.7613C7.68542 24.7613 8.86084 23.5858 8.86084 22.1392C8.86084 20.6925 7.68542 19.5171 6.23875 19.5171Z" fill="#F27F16"/>
<path d="M24.7613 26.6988C22.2425 26.6988 20.2017 24.6579 20.2017 22.1392C20.2017 19.6333 22.2425 17.5796 24.7613 17.5796C27.28 17.5796 29.3208 19.6204 29.3208 22.1392C29.3079 24.645 27.2671 26.6988 24.7613 26.6988ZM24.7613 19.5171C23.3146 19.5171 22.1392 20.6925 22.1392 22.1392C22.1392 23.5858 23.3146 24.7613 24.7613 24.7613C26.2079 24.7613 27.3833 23.5858 27.3833 22.1392C27.3704 20.6925 26.2079 19.5171 24.7613 19.5171Z" fill="#F27F16"/>
</svg>
