<svg width="33" height="33" viewBox="0 0 33 33" fill="none" xmlns="http://www.w3.org/2000/svg">
<path fill-rule="evenodd" clip-rule="evenodd" d="M25.7105 7.27471C26.2879 7.47688 26.6738 8.02126 26.6738 8.63303V17.5823C26.6738 20.0836 25.7647 22.4712 24.1593 24.3211C23.352 25.2526 22.3306 25.978 21.2458 26.5647L16.5445 29.1043L11.8353 26.5634C10.7492 25.9767 9.7265 25.2526 8.91785 24.3198C7.31113 22.4699 6.39941 20.081 6.39941 17.5771V8.63303C6.39941 8.02126 6.78524 7.47688 7.36266 7.27471L16.0596 4.2185C16.3688 4.11015 16.7057 4.11015 17.0136 4.2185L25.7105 7.27471Z" stroke="#11CABE" stroke-width="1.5" stroke-linecap="round" stroke-linejoin="round"/>
<path d="M13.1018 16.2516L15.6017 18.7529L20.7523 13.6024" stroke="#11CABE" stroke-width="1.5" stroke-linecap="round" stroke-linejoin="round"/>
</svg>
