<svg width="41" height="41" viewBox="0 0 41 41" fill="none" xmlns="http://www.w3.org/2000/svg">
<g clip-path="url(#clip0_956_8717)">
<path d="M40.3558 25.4893C37.6179 36.4716 26.4947 43.1551 15.5111 40.4165C4.53215 37.6786 -2.15143 26.5547 0.5877 15.5733C3.32442 4.58986 14.4477 -2.09422 25.4278 0.643703C36.4106 3.38163 43.0937 14.5068 40.3555 25.4895L40.3557 25.4893H40.3558Z" fill="#F7931A"/>
<path d="M29.5398 17.5799C29.9478 14.8518 27.8708 13.3854 25.0307 12.4071L25.952 8.71164L23.7025 8.15111L22.8056 11.7493C22.2142 11.6018 21.6069 11.4628 21.0032 11.325L21.9067 7.70311L19.6585 7.14258L18.7367 10.8368C18.2473 10.7254 17.7666 10.6153 17.3003 10.4992L17.3029 10.4876L14.2007 9.71296L13.6023 12.1156C13.6023 12.1156 15.2713 12.4982 15.2361 12.5217C16.147 12.7491 16.3118 13.3521 16.2844 13.8301L15.2349 18.0401C15.2976 18.056 15.379 18.079 15.4688 18.1151C15.3937 18.0965 15.3139 18.0761 15.231 18.0563L13.7599 23.9539C13.6486 24.2306 13.366 24.646 12.7291 24.4883C12.7517 24.5209 11.0941 24.0802 11.0941 24.0802L9.97729 26.6552L12.9047 27.385C13.4493 27.5216 13.983 27.6645 14.5085 27.7988L13.5777 31.5367L15.8246 32.0972L16.7464 28.3991C17.3603 28.5657 17.956 28.7194 18.5392 28.8643L17.6204 32.545L19.87 33.1055L20.8008 29.3747C24.6368 30.1007 27.5211 29.808 28.7351 26.3384C29.7134 23.545 28.6864 21.9337 26.6684 20.883C28.1382 20.544 29.2454 19.5773 29.5406 17.5802L29.5399 17.5797L29.5398 17.5799ZM24.4001 24.7871C23.7049 27.5805 19.0016 26.0705 17.4767 25.6918L18.712 20.7398C20.2368 21.1205 25.1267 21.8738 24.4002 24.7871H24.4001ZM25.0958 17.5394C24.4616 20.0804 20.547 18.7895 19.2772 18.4729L20.3971 13.9818C21.667 14.2983 25.7564 14.8891 25.096 17.5394H25.0958Z" fill="white"/>
</g>
<defs>
<clipPath id="clip0_956_8717">
<rect width="41" height="41" fill="white"/>
</clipPath>
</defs>
</svg>
