<svg width="41" height="41" viewBox="0 0 41 41" fill="none" xmlns="http://www.w3.org/2000/svg">
<path d="M41 20.5C41 31.8222 31.8219 41 20.5 41C9.17785 41 0 31.8222 0 20.5C0 9.17806 9.17785 0 20.5 0C31.8219 0 41 9.17806 41 20.5Z" fill="white"/>
<path d="M24.4111 10.2509C23.9682 10.2866 23.8106 10.3034 23.54 10.341C22.3928 10.5078 21.3919 10.8247 20.3429 11.3553C18.8768 12.0978 17.6573 13.1291 16.6639 14.4603C16.169 15.1222 15.7816 15.7953 15.4128 16.6316L15.2349 17.0347L13.3314 17.0441C12.1008 17.0497 11.4243 17.061 11.4113 17.0722C11.402 17.0816 11.2019 17.6103 10.9683 18.2441C10.3771 19.8491 10.2622 20.1641 10.2733 20.1791C10.277 20.1885 10.4086 20.1941 10.5624 20.1941C10.7181 20.196 11.0536 20.2035 11.3075 20.2147C11.5633 20.226 12.2083 20.241 12.7439 20.2485C13.4908 20.2597 13.767 20.271 13.9301 20.2953C14.0468 20.3122 14.2062 20.331 14.2841 20.3366L14.4268 20.346L14.4361 20.4303C14.4416 20.4866 14.4601 20.5335 14.4935 20.5672C14.5398 20.6178 14.5417 20.6197 14.5602 21.0753C14.5695 21.3285 14.5788 21.6078 14.5788 21.696C14.5788 21.8478 14.5769 21.8591 14.538 21.8722C14.5139 21.8797 13.8003 21.891 12.9496 21.8985L11.4039 21.9097L11.0647 22.8285C10.5865 24.1166 10.2789 24.9697 10.2789 25.0035C10.2789 25.026 10.3029 25.0316 10.3863 25.0335C10.4438 25.0335 10.7292 25.0428 11.0202 25.0522C11.3112 25.0635 12.2583 25.0785 13.1238 25.0878C14.0079 25.0972 14.7474 25.1122 14.8104 25.1235C14.8716 25.1347 15.0199 25.1516 15.1404 25.1647C15.3516 25.1872 15.3591 25.1891 15.3906 25.2416C15.4072 25.2716 15.448 25.3091 15.4814 25.326C15.5518 25.3597 15.5555 25.3653 15.7798 25.7703C16.3599 26.8241 16.8751 27.5235 17.6462 28.3035C18.1243 28.7891 18.5414 29.1416 19.0863 29.5241C20.3892 30.4391 21.9164 31.0522 23.4937 31.2922C24.1164 31.386 24.2758 31.3972 25.1339 31.3953C25.9068 31.3953 25.9698 31.3916 26.3535 31.3428C27.0207 31.2585 27.5693 31.1478 27.9326 31.0222C28.0735 30.9735 28.8167 30.6697 29.0261 30.576C29.3023 30.4522 29.3134 30.4466 29.3134 30.4241C29.3134 30.4128 28.6906 29.7735 27.9289 29.0028L26.5425 27.6022L26.4035 27.6303C24.4575 28.0185 22.478 27.5703 20.9211 26.3872C20.8044 26.2991 20.632 26.151 20.5375 26.061C20.3948 25.9222 20.3651 25.8828 20.354 25.8228C20.3466 25.7685 20.3003 25.6991 20.1687 25.5378C19.9907 25.3222 19.9388 25.2453 19.9574 25.2266C19.9629 25.221 20.1038 25.2097 20.2706 25.1985C20.6617 25.176 21.0379 25.146 21.214 25.1235C21.29 25.1141 21.6866 25.0991 22.0944 25.0897C23.1489 25.0635 23.4918 25.0485 23.5104 25.0241C23.5178 25.0128 23.5641 24.9022 23.6123 24.7803C23.6605 24.6566 23.7569 24.4335 23.8273 24.2835C24.0256 23.8522 24.109 23.6216 24.2165 23.2035C24.2499 23.0797 24.3574 22.7422 24.4556 22.4535C24.5557 22.1647 24.6335 21.9228 24.6298 21.9135C24.6261 21.906 23.3658 21.9003 21.8293 21.8985C20.2928 21.8985 18.9158 21.891 18.7712 21.8835C18.508 21.8722 18.5043 21.8703 18.4672 21.8197C18.4468 21.7916 18.4153 21.7691 18.3968 21.7691C18.3801 21.7691 18.356 21.7578 18.3449 21.7447C18.3078 21.6997 18.2671 21.3266 18.2671 21.036C18.2689 20.7603 18.293 20.3853 18.3134 20.3666C18.3171 20.361 18.458 20.3497 18.6229 20.3403C18.7897 20.331 19.0084 20.3103 19.1104 20.2935C19.266 20.2672 19.5607 20.2616 20.9916 20.2485C22.5985 20.2353 23.3195 20.2222 23.4492 20.2016C23.5048 20.1941 23.5122 20.181 23.6142 19.926C23.6735 19.7797 23.7661 19.566 23.8199 19.4535C24.0052 19.056 24.0979 18.8066 24.1887 18.4597C24.248 18.2347 24.4834 17.5072 24.5946 17.2053C24.6224 17.1341 24.6391 17.0703 24.6317 17.0647C24.6261 17.0591 23.5826 17.0497 22.3131 17.0441C20.0778 17.0347 20.0056 17.0328 19.9815 16.9991C19.9666 16.9803 19.9518 16.9559 19.9481 16.9447C19.9462 16.9353 19.8536 16.9185 19.7442 16.9072C19.6071 16.8941 19.5459 16.8809 19.5459 16.8641C19.5459 16.851 19.6182 16.7403 19.7053 16.6185C20.139 16.0184 20.6413 15.5385 21.2881 15.1035C21.6829 14.8391 21.8757 14.7322 22.3724 14.5035C22.6411 14.3778 23.2898 14.1622 23.5864 14.1003C23.6216 14.0928 23.7105 14.0722 23.781 14.0572C24.1368 13.9784 24.7596 13.9128 25.1655 13.9128C25.879 13.9128 26.6334 14.0328 27.3099 14.2541C27.4674 14.3047 27.6064 14.3516 27.6175 14.3553C27.6305 14.361 27.7065 14.2541 27.7992 14.1041C27.8881 13.9597 28.0253 13.7535 28.105 13.6466C28.3737 13.2847 28.737 12.6472 28.8871 12.2778C28.939 12.1522 29.078 11.8691 29.1948 11.6497C29.3134 11.4284 29.4061 11.2391 29.4005 11.226C29.3912 11.1997 28.9353 10.9972 28.6425 10.8866C27.7195 10.5397 26.7409 10.3297 25.7178 10.2566C25.475 10.2397 24.5946 10.2359 24.4111 10.2509Z" fill="#23262F"/>
</svg>
